<?xml version="1.0" encoding="UTF-8"?>
<svg id="Layer_1" data-name="Layer 1" xmlns="http://www.w3.org/2000/svg" xmlns:xlink="http://www.w3.org/1999/xlink" viewBox="0 0 510.08 174.8">
  <defs>
    <style>
      .cls-1 {
        fill: #0a6fb5;
      }

      .cls-1, .cls-2, .cls-3, .cls-4, .cls-5, .cls-6, .cls-7, .cls-8 {
        fill-rule: evenodd;
      }

      .cls-9, .cls-2 {
        fill: #fff;
      }

      .cls-10, .cls-4 {
        fill: #0a8141;
      }

      .cls-11, .cls-3 {
        fill: none;
      }

      .cls-5 {
        fill: #c79747;
      }

      .cls-12 {
        stroke: #010101;
        stroke-miterlimit: 10;
        stroke-width: .48px;
      }

      .cls-12, .cls-6 {
        fill: #010101;
      }

      .cls-7 {
        fill: #a81f24;
      }

      .cls-13 {
        fill: url(#linear-gradient);
      }

      .cls-14 {
        clip-path: url(#clippath);
      }

      .cls-8 {
        fill: #221f1f;
      }
    </style>
    <clipPath id="clippath">
      <path class="cls-11" d="M59.31,149.9c15.97,4.08,31.42,5.44,44.92,5.45h.22c22.85-.01,40.05-3.9,44.51-5.02v-19.52c-41.1,16.66-81.17,1.95-89.65-.17v19.27Z"/>
    </clipPath>
    <linearGradient id="linear-gradient" x1="-1296.69" y1="270.42" x2="-1296.16" y2="270.42" gradientTransform="translate(244077.1721 51033.6945) scale(188.1916 -188.1916)" gradientUnits="userSpaceOnUse">
      <stop offset="0" stop-color="#c79747"/>
      <stop offset=".52" stop-color="#f6e39d"/>
      <stop offset="1" stop-color="#c79747"/>
    </linearGradient>
  </defs>
  <g id="Layer_1-2" data-name="Layer 1">
    <g>
      <ellipse class="cls-9" cx="105.02" cy="80.67" rx="61.39" ry="58.83"/>
      <g>
        <path class="cls-8" d="M92.82,149.3c.85-.65,1.73-1.28,2.62-1.89.64-.44,1.29-.86,1.94-1.28-4.11-2.54-8.44-4.82-12.79-7.11-5.48-2.88-10.97-5.77-16.05-9.2-2.96.28-5.47.28-7.55-.08-2.2-.38-3.92-1.15-5.21-2.38l-.7-.67.95-.27c1.89-.53,3.71-.68,5.37-.61.69.03,1.35.1,1.98.2l-.27-.22c-.67-.55-1.34-1.13-2.01-1.74-3.25-.51-5.91-1.18-7.97-2.11-2.17-.97-3.71-2.22-4.63-3.83l-.47-.83h.99c2.15,0,4.08.39,5.75.99.43.15.85.32,1.25.5-.54-.65-1.06-1.32-1.57-2h0c-.17-.24-.35-.48-.52-.71l-.4-.56c-2.72-.91-4.91-1.88-6.55-2.97-1.74-1.16-2.88-2.48-3.41-4.02l-.31-.89.98.16c2.08.35,3.85,1.1,5.3,1.98.23.14.45.28.66.43-.37-.67-.74-1.35-1.09-2.05-2.62-1.29-4.68-2.57-6.17-3.9-1.58-1.41-2.52-2.88-2.81-4.5l-.17-.93.94.3c1.89.6,3.45,1.5,4.71,2.5.35.28.67.56.97.84-.44-1.14-.84-2.29-1.21-3.44-2.45-1.71-4.32-3.31-5.61-4.88-1.33-1.63-2.03-3.24-2.05-4.89v-.94s.87.43.87.43c2.38,1.17,4.07,2.81,5.24,4.41-.26-1.22-.47-2.45-.65-3.68-2.02-2.18-3.5-4.15-4.4-5.95-.93-1.87-1.24-3.58-.89-5.19l.2-.92.76.6c1.76,1.39,2.94,3.01,3.74,4.58-.01-.53-.02-1.06-.02-1.58,0-.72.02-1.44.04-2.17h-.04c-1.32-2.04-2.24-3.83-2.7-5.42-.49-1.66-.49-3.1.05-4.38l.37-.88.64.72c1.11,1.24,1.81,2.58,2.25,3.85.18-1.26.41-2.52.67-3.77.08-.39.17-.79.26-1.18-.92-2.23-1.49-4.15-1.66-5.79-.17-1.71.1-3.13.86-4.31l.52-.8.5.81c.86,1.41,1.31,2.83,1.5,4.15.44-1.25.91-2.49,1.43-3.71-.47-2.33-.67-4.29-.52-5.92.16-1.71.69-3.07,1.66-4.09l.66-.7.34.88c.47,1.24.67,2.45.7,3.57.33-.53.66-1.06.99-1.57.43-.66.87-1.33,1.32-1.98-.06-1.76.05-3.24.37-4.45.35-1.31.95-2.32,1.84-3.03l.76-.6.2.92c.21.94.24,1.84.17,2.67.3-.37.61-.74.91-1.1.84-.99,1.68-1.93,2.54-2.83.13-1.69.39-3.11.83-4.25.48-1.24,1.17-2.17,2.11-2.78l.82-.53.11.94c.13,1.09.04,2.11-.17,3.02v.04c.63-.57,1.27-1.11,1.91-1.64,1.23-1,2.47-1.92,3.71-2.78.58-1.8,1.23-3.26,1.98-4.38.81-1.21,1.76-2.04,2.9-2.47l.95-.36-.14.96c-.2,1.33-.67,2.48-1.25,3.44l-.06.09c.75-.42,1.49-.81,2.24-1.19,1.8-.9,3.6-1.68,5.41-2.36.78-1.18,1.54-2.11,2.32-2.8.86-.76,1.74-1.21,2.69-1.37l1.04-.17-.39.93c-.3.72-.7,1.35-1.14,1.89.69-.2,1.38-.39,2.07-.56,1.43-.36,2.86-.68,4.28-.94,1.06-1.19,2.04-2.11,2.99-2.75,1.04-.7,2.06-1.07,3.08-1.09l1.08-.02-.56.88c-.63.98-1.41,1.73-2.21,2.31.83-.1,1.65-.2,2.47-.27,1.83-.18,3.64-.29,5.42-.35v-.06s.02,0,.02,0h0s.01,0,.01,0h.58s0,.01,0,.01h.6c.39,0,.79,0,1.19-.01h.01s0,0,0,0h.02s0,.06,0,.06c1.78.06,3.59.18,5.42.35.82.08,1.64.17,2.47.27-.8-.58-1.58-1.33-2.21-2.31l-.56-.88,1.08.02c1.02.02,2.03.39,3.08,1.09.95.64,1.93,1.56,2.99,2.75,1.42.26,2.85.58,4.28.94.69.18,1.38.36,2.07.56-.44-.54-.84-1.17-1.14-1.89l-.39-.93,1.04.17c.95.15,1.83.61,2.69,1.37.78.68,1.54,1.62,2.32,2.8,1.81.68,3.62,1.47,5.42,2.37.75.38,1.5.77,2.24,1.19-.61-.98-1.11-2.16-1.31-3.53l-.14-.96.95.36c1.14.43,2.08,1.25,2.9,2.47.75,1.12,1.4,2.58,1.98,4.38,1.25.86,2.49,1.78,3.71,2.77.65.52,1.29,1.07,1.92,1.63v-.04c-.22-.91-.31-1.93-.18-3.02l.11-.94.82.53c.95.62,1.64,1.54,2.11,2.78.44,1.14.7,2.55.83,4.25.85.9,1.7,1.84,2.53,2.83.31.36.61.73.91,1.1-.07-.83-.04-1.73.17-2.67l.2-.92.76.6c.9.71,1.49,1.72,1.84,3.03.32,1.21.43,2.68.37,4.45.45.65.89,1.32,1.32,1.98.33.51.66,1.04.99,1.57.03-1.12.22-2.33.7-3.57l.34-.88.66.7c.97,1.02,1.51,2.38,1.66,4.09.15,1.63-.04,3.59-.52,5.92.52,1.22,1,2.46,1.43,3.71.19-1.32.63-2.75,1.5-4.15l.5-.81.52.8c.76,1.17,1.03,2.6.86,4.31-.16,1.65-.73,3.56-1.66,5.79.09.39.18.79.26,1.18.27,1.25.49,2.51.68,3.77.43-1.27,1.13-2.6,2.25-3.85l.64-.72.37.88c.53,1.28.53,2.73.05,4.38-.47,1.59-1.38,3.38-2.7,5.43h-.04c.03.72.04,1.44.04,2.16,0,.53,0,1.06-.02,1.58.8-1.57,1.98-3.19,3.74-4.58l.76-.6.2.92c.36,1.61.04,3.32-.89,5.19-.9,1.8-2.38,3.76-4.4,5.95-.18,1.23-.4,2.46-.65,3.68,1.18-1.6,2.86-3.24,5.24-4.41l.88-.43v.94c-.03,1.65-.73,3.25-2.06,4.89-1.28,1.57-3.16,3.17-5.61,4.88-.37,1.16-.77,2.31-1.21,3.45.09-.09.19-.17.28-.26,1.37-1.23,3.15-2.38,5.4-3.09l.94-.3-.17.93c-.29,1.62-1.24,3.09-2.82,4.5-1.49,1.33-3.55,2.61-6.17,3.9-.35.7-.72,1.38-1.09,2.05.21-.15.43-.29.66-.43,1.45-.88,3.22-1.63,5.3-1.98l.98-.16-.31.9c-.53,1.54-1.67,2.85-3.41,4.01-1.64,1.1-3.82,2.07-6.55,2.97l-.4.56c-.17.24-.34.48-.52.71h0c-.51.69-1.03,1.35-1.57,2,.4-.18.82-.34,1.25-.5,1.68-.59,3.61-.99,5.76-.99h.99s-.47.83-.47.83c-.92,1.61-2.46,2.86-4.63,3.83-2.07.92-4.72,1.6-7.97,2.11-.67.61-1.34,1.19-2.01,1.74l-.27.22c.63-.1,1.29-.17,1.98-.2,1.67-.07,3.48.08,5.37.61l.96.27-.7.67c-1.28,1.23-3.01,2-5.21,2.38-2.08.36-4.59.37-7.55.08-5.08,3.43-10.58,6.32-16.05,9.2-4.34,2.28-8.68,4.56-12.79,7.11.65.41,1.3.84,1.93,1.28.89.61,1.77,1.24,2.62,1.9l-.33,1c-1.81.14-3.69.24-5.6.29-2.07.06-4.16.09-6.21.07h0s0,0,0,0h0c-2.05,0-4.15-.01-6.22-.08-1.91-.06-3.79-.16-5.59-.29l-.33-1ZM44.11,80.87c.46-1.2,1.13-2.42,2.09-3.6l.6-.74.41.86c.72,1.5.8,3.23.32,5.25-.46,1.93-1.45,4.13-2.9,6.66l.09.59c.1.66.22,1.31.34,1.96v-.06c.28-1.67.88-3.49,2.06-5.26l.53-.79.49.82c.86,1.43,1.11,3.14.83,5.18-.26,1.93-1.01,4.15-2.17,6.73.3.9.63,1.81.99,2.7-.03-1.68.24-3.55,1.08-5.47l.38-.87.63.73c1.1,1.27,1.66,2.91,1.75,4.95.09,1.93-.24,4.23-.91,6.94.2.37.4.73.6,1.09-.24-1.58-.22-3.35.28-5.23l.24-.91.73.63c1.28,1.1,2.09,2.65,2.5,4.66.38,1.9.42,4.22.16,7.01l.36.5.48.66c.22.3.45.6.68.89-.09-.25-.18-.5-.26-.76-.47-1.52-.74-3.22-.65-5.09l.05-.94.85.48c1.64.93,2.87,2.41,3.79,4.47.87,1.95,1.47,4.42,1.86,7.42.77.61,1.57,1.2,2.38,1.75-.24-.36-.47-.74-.68-1.14-.86-1.59-1.54-3.46-1.76-5.62l-.1-.94.91.36c1.73.68,3.17,1.96,4.38,3.83,1.15,1.76,2.1,4.06,2.94,6.9,5.26,2.75,11.14,4.97,17.18,7.26,5.74,2.17,11.63,4.39,17.29,7.19,5.67-2.79,11.55-5.02,17.29-7.19,6.04-2.28,11.92-4.51,17.18-7.26.84-2.84,1.79-5.14,2.94-6.9,1.21-1.87,2.65-3.14,4.38-3.83l.92-.36-.1.94c-.22,2.16-.9,4.03-1.76,5.62-.22.4-.45.78-.68,1.14.81-.56,1.61-1.14,2.38-1.75.39-3,.98-5.47,1.86-7.42.92-2.06,2.16-3.54,3.79-4.47l.85-.48.05.94c.11,2.13-.26,4.05-.86,5.72l-.04.12c.23-.29.46-.59.68-.89.11-.15.26-.36.48-.66l.36-.5c-.25-2.78-.22-5.11.16-7.01.41-2.01,1.22-3.56,2.5-4.66l.74-.63.24.91c.1.38.18.76.25,1.14-.24-1.46-.34-2.77-.28-3.94.09-2.05.65-3.68,1.75-4.95l.63-.73.38.87c.84,1.92,1.11,3.79,1.08,5.47.35-.89.68-1.79.99-2.7-1.16-2.57-1.9-4.8-2.17-6.73-.28-2.04-.02-3.75.84-5.18l.49-.82.53.79c1.2,1.8,1.8,3.64,2.06,5.33.13-.65.24-1.3.34-1.95l.09-.59c-1.46-2.52-2.44-4.72-2.91-6.66-.48-2.02-.39-3.75.32-5.25l.41-.86.6.74c.96,1.18,1.62,2.4,2.09,3.6,0-.22,0-.42-.01-.62-.01-.47-.03-.96-.06-1.46-1.48-1.82-2.55-3.46-3.18-4.94-.67-1.59-.84-3.02-.46-4.34l.26-.91.72.64c.7.62,1.27,1.29,1.75,1.97-.2-1.1-.44-2.19-.71-3.28-1.89-1.34-3.35-2.6-4.36-3.84-1.08-1.33-1.65-2.65-1.67-4.01l-.02-.94.88.43c1.41.69,2.52,1.57,3.4,2.5-.41-1.15-.85-2.28-1.32-3.38-2.12-1.09-3.79-2.16-4.99-3.26-1.29-1.19-2.06-2.42-2.28-3.78l-.15-.93.94.31c1.48.49,2.71,1.21,3.71,2-.26-.47-.53-.94-.81-1.41l-.08-.07-.13-.17s-.31-.6-.94-1.61c-1.97-.58-3.55-1.21-4.75-1.95-1.27-.78-2.11-1.69-2.53-2.78l-.34-.88.98.14c1.36.19,2.54.63,3.52,1.17-.94-1.16-2.06-2.44-3.36-3.78-2.04-.19-3.72-.51-5.04-1.01-1.41-.53-2.43-1.26-3.07-2.24l-.52-.8.99-.05c1.42-.07,2.71.15,3.81.51-1.84-1.59-3.93-3.19-6.29-4.74-1.74.13-3.21.1-4.44-.12-1.35-.25-2.41-.74-3.22-1.51l-.72-.68.98-.26c.87-.23,1.71-.33,2.51-.33-.54-.29-1.1-.58-1.66-.86-1.38-.68-2.83-1.34-4.35-1.96-1.4.42-2.62.65-3.69.69-1.18.04-2.18-.18-3.01-.68l-.87-.52.91-.46c.69-.35,1.39-.57,2.07-.7-.53-.17-1.07-.34-1.62-.5-1.5-.44-3.05-.85-4.67-1.21-1.31.61-2.48,1.01-3.54,1.19-1.16.2-2.19.12-3.1-.25l-.94-.39.82-.58c.56-.4,1.15-.69,1.74-.92-.74-.11-1.5-.22-2.26-.31-1.82-.23-3.72-.4-5.68-.5-1.97.11-3.86.28-5.68.5-.76.09-1.52.2-2.26.31.59.22,1.18.52,1.74.92l.82.58-.94.39c-.91.38-1.94.45-3.1.25-1.06-.18-2.23-.59-3.54-1.19-1.61.36-3.17.77-4.67,1.21-.55.16-1.09.33-1.62.5.68.13,1.38.36,2.07.7l.91.46-.87.52c-.84.5-1.83.72-3.01.68-1.07-.03-2.29-.27-3.69-.69-1.53.62-2.98,1.28-4.35,1.96-.56.28-1.12.57-1.66.86.8,0,1.64.11,2.51.33l.98.26-.72.68c-.81.77-1.87,1.26-3.22,1.51-1.23.23-2.71.26-4.44.12-2.36,1.55-4.45,3.16-6.29,4.74,1.1-.36,2.38-.59,3.81-.51l.99.05-.52.8c-.64.99-1.66,1.72-3.07,2.24-1.32.49-2.99.81-5.04,1.01-1.3,1.34-2.42,2.62-3.36,3.79.98-.54,2.16-.98,3.52-1.17l.98-.14-.34.89c-.41,1.09-1.26,1.99-2.53,2.78-1.2.74-2.78,1.37-4.75,1.95-.64,1.01-.94,1.6-.94,1.61l-.13.17-.08.07c-.27.46-.54.93-.81,1.41,1-.79,2.23-1.51,3.71-2l.94-.31-.16.93c-.23,1.35-.99,2.59-2.28,3.78-1.2,1.1-2.87,2.17-4.98,3.26-.48,1.12-.92,2.25-1.33,3.38.88-.93,2-1.81,3.4-2.5l.88-.43-.02.94c-.02,1.36-.59,2.67-1.67,4.01-1.01,1.24-2.47,2.5-4.36,3.84-.27,1.09-.5,2.18-.71,3.28.47-.68,1.05-1.34,1.74-1.97l.72-.65.26.91c.38,1.32.21,2.75-.46,4.34-.63,1.48-1.7,3.11-3.18,4.94-.03.5-.05.98-.06,1.46,0,.2-.01.41-.01.62"/>
        <path class="cls-8" d="M93.19,149.73c20.14-15.42,48.25-16.12,61.13-33.58,7.35-9.97,12.09-21.19,12.09-34.27,0-18.62-8.98-36.32-23.14-47.23,15.42,11.22,23.43,28.91,23.46,46.34.02,12.44-4.05,24.97-11.77,35.44-12.37,16.72-33.66,21.71-49.23,33.67-4.13.04-8.47-.05-12.54-.36"/>
        <path class="cls-8" d="M163.25,77.6c4.24,5.23,2.6,11.46,2.6,11.46-2.9-5.01-3.92-8.69-2.6-11.46"/>
        <path class="cls-8" d="M171.43,78.42c-5.34,4.23-5.16,10.66-5.16,10.66,3.98-4.3,5.82-7.68,5.16-10.66"/>
        <path class="cls-8" d="M162.67,69.64c4.16,3.72,3.69,8.98,3.69,8.98-3.04-3.71-4.38-6.57-3.69-8.98"/>
        <path class="cls-8" d="M169.42,69.22c-3.7,4.13-2.61,9.31-2.61,9.31,2.59-4,3.58-6.99,2.61-9.31"/>
        <path class="cls-8" d="M158.67,60.06c5.09,2.48,6.17,7.66,6.17,7.66-4-2.77-6.12-5.17-6.17-7.66"/>
        <path class="cls-8" d="M166.07,57.95c-2.88,4.68-.84,9.6-.84,9.6,1.81-4.37,2.23-7.47.84-9.6"/>
        <path class="cls-8" d="M154.34,51.56c5.4,1.78,7.24,6.77,7.24,6.77-4.38-2.21-6.83-4.3-7.24-6.77"/>
        <path class="cls-8" d="M161.04,48.48c-1.94,5.09.99,9.59.99,9.59.95-4.61.78-7.73-.99-9.59"/>
        <path class="cls-8" d="M149.57,44.85c4.65.65,6.95,4.4,6.95,4.4-3.89-1.14-6.22-2.47-6.95-4.4"/>
        <path class="cls-8" d="M154.87,41.26c-.96,4.36,1.97,7.69,1.97,7.69.21-3.85-.31-6.38-1.97-7.69"/>
        <path class="cls-8" d="M162.29,86.8c3.71,5.57,1.46,11.64,1.46,11.64-2.4-5.24-3.05-9-1.46-11.64"/>
        <path class="cls-8" d="M171.58,89.22c-6.18,3.04-7.47,9.35-7.47,9.35,4.86-3.38,7.43-6.31,7.47-9.35"/>
        <path class="cls-8" d="M160.5,95.87c2.66,6.09-.65,11.71-.65,11.71-1.42-5.55-1.39-9.36.65-11.71"/>
        <path class="cls-8" d="M169.18,99.62c-6.61,2.08-8.94,8.12-8.94,8.12,5.37-2.61,8.39-5.12,8.94-8.12"/>
        <path class="cls-8" d="M142.22,38.13c4.69-.25,7.75,2.99,7.75,2.99-4.06-.38-6.61-1.24-7.75-2.99"/>
        <path class="cls-8" d="M147.39,33.32c-.52,4.42,2.74,7.48,2.74,7.48-.18-3.85-.95-6.32-2.74-7.48"/>
        <path class="cls-8" d="M157.74,103.41c1.69,6.39-2.44,11.49-2.44,11.49-.55-5.69.07-9.45,2.44-11.49"/>
        <path class="cls-8" d="M165.76,108.31c-6.86,1.15-10.09,6.8-10.09,6.8,5.71-1.84,9.09-3.91,10.09-6.8"/>
        <path class="cls-8" d="M153.46,110.9c.38,7.54-5.48,12.4-5.48,12.4.73-6.51,2.32-10.61,5.48-12.4"/>
        <path class="cls-8" d="M160.89,117.83c-7.98-.01-12.83,5.75-12.83,5.75,6.84-.99,11.09-2.68,12.83-5.75"/>
        <path class="cls-8" d="M146.98,117.24c-.77,7.52-7.3,11.52-7.3,11.52,1.71-6.34,3.9-10.18,7.3-11.52"/>
        <path class="cls-8" d="M153.71,126.95c-7.66-2.14-14.02,2.1-14.02,2.1,6.86.86,11.44.38,14.02-2.1"/>
        <path class="cls-8" d="M132.46,31.31c4.51-1.18,8.32,1.36,8.32,1.36-4.05.45-6.76.12-8.32-1.36"/>
        <path class="cls-8" d="M136.25,25.59c.64,4.41,4.61,6.74,4.61,6.74-1.17-3.72-2.57-5.96-4.61-6.74"/>
        <path class="cls-8" d="M122.41,27.14c3.3-1.65,6.83-.26,6.83-.26-3.09,1-5.29,1.17-6.83.26"/>
        <path class="cls-8" d="M124.2,22.04c1.42,3.37,5.02,4.56,5.02,4.56-1.7-2.74-3.26-4.28-5.02-4.56"/>
        <path class="cls-8" d="M111.51,24.65c2.96-2.09,6.7-1.2,6.7-1.2-2.87,1.41-5.02,1.89-6.7,1.2"/>
        <path class="cls-8" d="M112.37,19.36c2.01,3.13,5.78,3.81,5.78,3.81-2.16-2.47-3.98-3.78-5.78-3.81"/>
        <path class="cls-8" d="M159.66,52.8l-1.9-1.67s-14.13-27.73-54.03-29.29c18.01.26,40.25,4.84,55.93,30.96"/>
        <path class="cls-5" d="M46.67,77.6c-4.24,5.23-2.6,11.46-2.6,11.46,2.9-5.01,3.92-8.69,2.6-11.46M93.19,149.73c1.7-1.3,3.46-2.5,5.26-3.61-9.53-6.02-20.35-10.5-29.75-16.89-6.02.6-10.11.01-12.5-2.28,3.64-1.02,7-.59,9.51.14-1.49-1.13-2.94-2.31-4.33-3.58-6.56-1-10.65-2.68-12.36-5.68,4.14,0,7.44,1.54,9.65,3.03-1.31-1.38-2.56-2.86-3.73-4.44-.35-.47-.69-.94-1.02-1.42-5.52-1.82-8.79-3.86-9.78-6.7,4,.67,6.76,2.87,8.37,4.58-1.07-1.69-2.06-3.43-2.95-5.2-5.31-2.6-8.31-5.1-8.85-8.08,4.32,1.36,6.82,4.42,8.02,6.37-3.68-7.92-5.59-16.48-5.58-25,.01-7.96,1.69-15.96,4.97-23.39-.16.3-.27.46-.27.46-.95-4.61-.78-7.73.99-9.59,1.22,3.19.52,6.14-.17,7.9.66-1.39,1.37-2.76,2.14-4.11l-.6.53c.91-1.52,1.84-2.96,2.8-4.34-.14-3.57.4-5.94,1.99-7.2.43,1.96.08,3.71-.44,5.05,1.69-2.26,3.44-4.31,5.23-6.18.23-3.46,1.02-5.71,2.7-6.8.24,2.06-.33,3.82-1.02,5.11,2.46-2.37,4.99-4.41,7.57-6.17,1.17-3.68,2.56-5.9,4.59-6.67-.44,3.02-2.44,5.06-3.65,6.05,3.6-2.35,7.29-4.15,11-5.54,1.57-2.42,3.05-3.8,4.71-4.06-.67,1.57-1.81,2.67-2.83,3.4,2.98-1,5.96-1.74,8.91-2.28,2.16-2.46,3.97-3.76,5.76-3.8-1.66,2.58-4.52,3.5-5.46,3.74,4.24-.76,8.41-1.11,12.39-1.23-.25-.01-.49-.03-.75-.04.4,0,.81.01,1.22.02.41-.01.82-.02,1.22-.02-.25,0-.5.02-.75.04,3.98.12,8.15.47,12.39,1.23-.95-.24-3.81-1.16-5.46-3.74,1.79.04,3.61,1.34,5.76,3.8,2.95.54,5.93,1.28,8.91,2.28-1.03-.73-2.17-1.82-2.83-3.4,1.66.27,3.13,1.64,4.71,4.06,3.71,1.39,7.4,3.19,11,5.54-1.22-.99-3.22-3.03-3.66-6.05,2.03.77,3.42,2.99,4.59,6.67,2.58,1.76,5.12,3.8,7.57,6.17-.68-1.3-1.26-3.06-1.02-5.11,1.68,1.09,2.46,3.34,2.7,6.8,1.79,1.87,3.54,3.92,5.23,6.18-.52-1.34-.88-3.09-.44-5.05,1.59,1.26,2.14,3.63,1.99,7.2.95,1.38,1.89,2.82,2.8,4.34l-.6-.53c.77,1.34,1.48,2.71,2.14,4.11-.69-1.76-1.38-4.72-.17-7.9,1.77,1.86,1.94,4.98.99,9.59,0,0-.11-.16-.27-.47,3.28,7.42,4.96,15.43,4.97,23.39.02,8.52-1.89,17.09-5.57,25,1.21-1.95,3.7-5.01,8.02-6.37-.54,2.98-3.54,5.48-8.85,8.08-.89,1.77-1.88,3.51-2.95,5.2,1.61-1.72,4.38-3.92,8.37-4.58-.98,2.83-4.26,4.88-9.77,6.7-.33.48-.67.95-1.02,1.42-1.17,1.58-2.41,3.05-3.73,4.44,2.22-1.49,5.51-3.04,9.65-3.03-1.7,3-5.8,4.68-12.36,5.68-1.39,1.27-2.84,2.45-4.33,3.58,2.51-.73,5.86-1.16,9.51-.14-2.39,2.29-6.48,2.88-12.5,2.28-9.41,6.39-20.23,10.87-29.75,16.89,1.8,1.11,3.56,2.31,5.26,3.61-3.82.29-7.86.39-11.76.37h0c-3.9.02-7.94-.08-11.76-.37M104.96,142.52c-11.76-5.85-24.56-9.2-34.98-14.7-1.68-5.78-3.81-9.31-7.04-10.59.42,4.15,2.61,7.23,4.48,9.16-1.97-1.16-3.83-2.41-5.57-3.81-.77-6.1-2.35-9.97-5.39-11.69-.21,4.1,1.43,7.41,2.97,9.57-1.39-1.32-2.67-2.76-3.83-4.33-.33-.44-.65-.89-.97-1.34.53-5.63-.09-9.37-2.45-11.4-1.11,4.2.3,7.85,1.39,9.85-1.26-1.88-2.42-3.8-3.47-5.77,1.4-5.5,1.36-9.27-.67-11.61-1.85,4.24-.81,8.26,0,10.3-1.27-2.51-2.35-5.1-3.24-7.77,2.38-5.22,3.03-8.97,1.45-11.6-2.86,4.3-2.18,8.88-1.72,10.76-1.54-4.92-2.39-10.14-2.39-15.69,0-1.1.03-2.2.09-3.3,3.01-3.68,4.33-6.53,3.65-8.93-2.04,1.83-2.97,4.02-3.38,5.79.29-2.65.77-5.27,1.41-7.84,3.88-2.71,5.93-5.07,5.97-7.53-3.1,1.51-4.71,4.03-5.5,5.77.73-2.58,1.63-5.1,2.68-7.55,4.32-2.19,6.74-4.27,7.15-6.72-3.61,1.19-5.63,3.81-6.57,5.42.9-1.96,1.9-3.87,3-5.71l.15-.13s5.12-10.04,17.9-18.37c3.54.3,5.97-.08,7.4-1.45-1.91-.5-3.69-.33-5.11.03,2.62-1.56,5.54-3.02,8.75-4.32,2.88.88,4.95,1.01,6.42.13-1.76-.88-3.58-.9-4.9-.72,2.92-1.09,6.07-2.04,9.47-2.8,2.69,1.27,4.73,1.68,6.33,1.02-1.53-1.08-3.26-1.36-4.58-1.38,3.46-.68,7.16-1.15,11.13-1.36,3.97.21,7.68.69,11.14,1.36-1.32.02-3.05.31-4.58,1.38,1.61.66,3.64.25,6.33-1.02,3.41.75,6.56,1.7,9.47,2.8-1.32-.18-3.14-.16-4.9.72,1.46.88,3.54.75,6.42-.13,3.22,1.3,6.13,2.76,8.75,4.32-1.42-.36-3.21-.53-5.11-.03,1.44,1.37,3.86,1.75,7.41,1.45,12.77,8.34,17.9,18.37,17.9,18.37l.15.13c1.1,1.85,2.1,3.76,3,5.72-.94-1.61-2.96-4.23-6.58-5.43.41,2.45,2.83,4.53,7.15,6.72,1.05,2.45,1.95,4.97,2.68,7.55-.79-1.73-2.4-4.25-5.5-5.77.04,2.46,2.09,4.82,5.97,7.53.64,2.57,1.11,5.19,1.41,7.85-.41-1.76-1.34-3.96-3.38-5.79-.69,2.4.63,5.25,3.65,8.93.06,1.09.1,2.19.1,3.3,0,5.55-.85,10.76-2.4,15.69.46-1.87,1.14-6.47-1.72-10.77-1.58,2.64-.93,6.38,1.45,11.6-.89,2.67-1.97,5.26-3.24,7.77.8-2.04,1.85-6.06,0-10.3-2.03,2.34-2.07,6.11-.67,11.61-1.05,1.97-2.21,3.89-3.47,5.77,1.09-2,2.5-5.65,1.39-9.85-2.36,2.03-2.99,5.76-2.45,11.4-.32.45-.64.9-.97,1.34-1.16,1.57-2.44,3-3.83,4.33,1.54-2.16,3.18-5.47,2.97-9.57-3.04,1.73-4.63,5.59-5.39,11.69-1.73,1.39-3.6,2.65-5.57,3.81,1.87-1.93,4.05-5.01,4.48-9.16-3.23,1.28-5.36,4.8-7.04,10.59-10.42,5.5-23.21,8.85-34.98,14.7M163.25,77.6c-1.32,2.77-.3,6.45,2.6,11.46,0,0,1.64-6.24-2.6-11.46M171.43,78.42c-5.34,4.23-5.16,10.66-5.16,10.66,3.98-4.3,5.82-7.68,5.16-10.66M169.42,69.22c-3.7,4.13-2.61,9.31-2.61,9.31,2.59-4,3.58-6.99,2.61-9.31M166.07,57.95c-2.88,4.68-.84,9.6-.84,9.6,1.81-4.37,2.23-7.47.84-9.6M149.57,44.85c.74,1.93,3.06,3.26,6.95,4.4,0,0-2.3-3.76-6.95-4.4M171.58,89.22c-6.18,3.04-7.47,9.35-7.47,9.35,4.86-3.38,7.43-6.31,7.47-9.35M142.22,38.13c1.13,1.75,3.69,2.62,7.75,2.99,0,0-3.05-3.24-7.75-2.99M38.49,78.42c5.34,4.23,5.16,10.66,5.16,10.66-3.98-4.3-5.82-7.68-5.16-10.66M40.5,69.22c3.7,4.13,2.61,9.31,2.61,9.31-2.59-4-3.58-6.99-2.61-9.31M43.85,57.95c-1.38,2.13-.96,5.23.84,9.6,0,0,2.03-4.92-.84-9.6M60.35,44.85c-4.65.65-6.95,4.4-6.95,4.4,3.89-1.14,6.22-2.47,6.95-4.4M38.33,89.22c.04,3.04,2.61,5.97,7.47,9.35,0,0-1.29-6.31-7.47-9.35M67.69,38.13c-4.7-.25-7.75,2.99-7.75,2.99,4.06-.38,6.62-1.24,7.75-2.99"/>
        <g class="cls-14">
          <rect class="cls-13" x="59.08" y="129.76" width="90.11" height="26.46" transform="translate(-2.78 2.06) rotate(-1.12)"/>
        </g>
        <path class="cls-5" d="M149.55,149.78v-13.38s2.81-3.16,8.29-1.27c5.49,1.89,10.85.71,13.11-2.83l-1.62,5.28,4.4,2.53c-4.59,7.58-15.8.81-24.18,9.67"/>
        <path class="cls-5" d="M58.53,149.78v-13.38s-2.81-3.16-8.29-1.27c-5.49,1.89-10.85.71-13.11-2.83l1.62,5.28-4.4,2.53c4.59,7.58,15.8.81,24.18,9.67"/>
        <path class="cls-7" d="M79.96,149.62v-7.14h5.28v1.21h-3.84v1.59h3.57v1.21h-3.57v1.93h3.98v1.21h-5.42ZM86.11,148.16l1.38-.21c.06.26.18.47.36.6.18.14.43.21.75.21.35,0,.62-.06.8-.19.12-.09.18-.21.18-.37,0-.1-.03-.19-.1-.26-.07-.07-.22-.13-.46-.18-1.1-.24-1.8-.47-2.1-.67-.41-.28-.61-.67-.61-1.17,0-.45.18-.83.53-1.13.35-.31.9-.46,1.64-.46s1.23.12,1.58.35c.34.23.58.57.71,1.03l-1.29.24c-.06-.2-.16-.36-.32-.47-.15-.11-.38-.16-.66-.16-.36,0-.62.05-.78.15-.1.07-.16.16-.16.28,0,.1.05.18.14.25.12.09.55.22,1.28.38.73.17,1.24.37,1.53.61.29.24.43.58.43,1.02,0,.47-.2.88-.59,1.22-.4.34-.98.51-1.76.51-.7,0-1.26-.14-1.68-.43-.41-.28-.68-.67-.81-1.16M94.5,144.44v1.09h-.94v2.1c0,.42,0,.67.03.74.02.07.06.13.12.17.06.04.14.07.23.07.13,0,.31-.04.55-.13l.11,1.06c-.32.14-.68.2-1.08.2-.25,0-.47-.04-.66-.12-.2-.08-.34-.19-.43-.32-.09-.13-.16-.31-.19-.54-.03-.16-.04-.48-.04-.97v-2.26h-.63v-1.09h.63v-1.03l1.37-.81v1.83h.94ZM100.2,149.62h-1.27v-.76c-.21.3-.46.52-.75.67-.29.15-.58.22-.87.22-.6,0-1.11-.24-1.53-.72-.42-.48-.64-1.15-.64-2.01s.21-1.55.62-2c.41-.46.94-.68,1.57-.68.58,0,1.08.24,1.5.72v-2.58h1.37v7.14ZM96.56,146.93c0,.55.08.95.23,1.2.22.36.53.54.92.54.31,0,.58-.13.8-.4.22-.27.33-.67.33-1.2,0-.6-.11-1.03-.32-1.29-.21-.26-.49-.39-.82-.39s-.59.13-.81.39c-.22.26-.33.65-.33,1.16M101.54,148.25h1.37v1.37h-1.37v-1.37ZM110.29,149.62h-1.37v-5.17c-.5.47-1.09.82-1.76,1.04v-1.25c.36-.12.74-.34,1.16-.66.42-.33.7-.71.86-1.14h1.11v7.18ZM112.38,147.96l1.33-.15c.03.27.12.47.25.6.13.13.31.2.54.2.28,0,.52-.13.71-.39.2-.26.32-.8.38-1.62-.34.4-.77.6-1.29.6-.56,0-1.05-.22-1.45-.65-.41-.43-.61-1-.61-1.69s.21-1.31.64-1.75c.43-.44.98-.66,1.64-.66.72,0,1.32.28,1.78.84.46.56.7,1.48.7,2.77s-.24,2.25-.72,2.83c-.48.58-1.11.87-1.88.87-.56,0-1.01-.15-1.35-.45-.34-.3-.56-.74-.66-1.34M115.46,144.97c0-.44-.1-.78-.3-1.02-.2-.24-.44-.36-.7-.36s-.46.1-.63.3c-.17.2-.25.52-.25.98s.09.8.27,1.01c.18.21.41.32.68.32s.48-.1.66-.31c.18-.21.27-.51.27-.91M117.93,147.96l1.33-.15c.03.27.12.47.25.6.13.13.31.2.53.2.28,0,.52-.13.71-.39.2-.26.32-.8.37-1.62-.34.4-.77.6-1.29.6-.56,0-1.04-.22-1.45-.65-.41-.43-.61-1-.61-1.69s.21-1.31.64-1.75c.43-.44.98-.66,1.64-.66.72,0,1.32.28,1.78.84.46.56.7,1.48.7,2.77s-.24,2.25-.72,2.83c-.48.58-1.11.87-1.88.87-.56,0-1.01-.15-1.35-.45-.34-.3-.56-.74-.66-1.34M121.01,144.97c0-.44-.1-.78-.3-1.02-.2-.24-.44-.36-.7-.36s-.46.1-.63.3c-.17.2-.25.52-.25.98s.09.8.27,1.01c.18.21.41.32.68.32s.48-.1.66-.31c.18-.21.27-.51.27-.91M126.1,149.62v-1.44h-2.91v-1.19l3.09-4.54h1.15v4.54h.89v1.2h-.89v1.44h-1.33ZM126.1,146.99v-2.44l-1.63,2.44h1.63Z"/>
        <path class="cls-6" d="M77.56,37.83l.45,2.33.66-.13c.51-.1.87-.27,1.08-.51.22-.24.29-.56.21-.95-.08-.39-.26-.66-.55-.8-.29-.15-.69-.17-1.2-.07l-.66.13ZM75.59,46.08l-.37-1.9.97-.19-1.1-5.69-.97.19-.37-1.9,4.88-.94c.99-.19,1.83-.07,2.51.36.68.43,1.11,1.1,1.29,2.03.18.93.03,1.71-.44,2.36-.47.65-1.21,1.07-2.2,1.26l-1.44.28.3,1.58,1-.19.37,1.9-4.44.86ZM83.02,44.63l-.22-1.92.82-.09,1.12-5.97-.95.11-.22-1.92,6.78-.79.22,1.92-.93.11,2.45,5.55.83-.1.22,1.92-4.21.49-.22-1.92.86-.1-.54-1.25-2.64.31-.21,1.33.84-.1.22,1.92-4.21.49ZM86.58,39.23l1.86-.22-1.29-2.93-.57,3.15ZM93.47,43.41l8.21-.38-.18-3.81-1.64.08-.49,1.9-2.48.12-.27-5.79.97-.05-.09-1.93-4.48.21.09,1.93.98-.05.27,5.79-.98.05.09,1.93ZM102.19,43.01v-1.93s.98,0,.98,0v-5.8s-.99,0-.99,0v-1.93s4.48,0,4.48,0v1.93s-.97,0-.97,0v5.8s2.49,0,2.49,0l.58-1.88h1.64s0,3.81,0,3.81h-8.21ZM110.63,42.98l.14-1.93.82.06,2.22-5.65-.95-.07.14-1.93,6.81.5-.14,1.93-.94-.07,1.36,5.91.83.06-.14,1.93-4.23-.31.14-1.93.86.06-.29-1.33-2.65-.19-.45,1.27.85.06-.14,1.93-4.23-.31ZM115.12,38.34l1.87.14-.72-3.12-1.15,2.98ZM123.68,44.14l-1.34-8.04-.75-.12.3-1.91,4,.64-.31,1.91-.88-.14.62,4.88,2.13-4.44-.88-.14.31-1.91,3.99.64-.31,1.91-.75-.12-3.77,7.22-2.38-.38ZM129.79,45.16l4.41,1.02.44-1.88-1-.23,1.31-5.65,1,.23.44-1.88-4.41-1.02-.44,1.88.96.22-1.31,5.65-.96-.22-.44,1.88Z"/>
        <path class="cls-6" d="M134.2,125.58l.76.59-1.32,1.52-2.36-2.04,1.4-1.62c.61.06,1.1.03,1.46-.07.36-.1.67-.29.91-.58.2-.23.31-.47.32-.71.01-.24-.08-.44-.26-.59-.17-.15-.38-.2-.61-.16-.23.05-.49.19-.78.43l-.77.64c-.83.69-1.6,1.08-2.3,1.17-.71.08-1.36-.13-1.96-.65-.63-.55-.96-1.22-.99-2.04-.03-.81.25-1.56.83-2.23.31-.36.64-.62,1.01-.78.36-.16.76-.23,1.19-.2l-.64-.52,1.32-1.52,2.19,1.9-1.32,1.52c-.51-.1-.94-.11-1.28-.04-.34.07-.62.23-.83.47-.19.21-.28.44-.29.68,0,.24.08.43.24.58.17.15.38.2.61.14.23-.06.54-.23.91-.52l.67-.55c.85-.67,1.63-1.05,2.32-1.13.7-.08,1.34.14,1.93.65.7.6,1.07,1.31,1.11,2.11.04.8-.25,1.57-.88,2.3-.36.41-.75.73-1.18.93-.43.21-.9.32-1.42.33M158.51,72.56l.96.07-.27,2-3.09-.41.28-2.12c.54-.29.93-.58,1.18-.86.25-.28.4-.61.45-.98.04-.3,0-.56-.12-.77-.12-.21-.3-.32-.54-.36-.23-.03-.43.04-.59.2-.17.17-.31.43-.41.78l-.29.95c-.31,1.03-.74,1.78-1.29,2.24-.55.46-1.21.63-2,.53-.83-.11-1.47-.5-1.94-1.16-.47-.66-.65-1.44-.53-2.32.06-.47.2-.87.42-1.21.21-.34.51-.61.88-.82l-.82-.08.27-2,2.87.39-.27,2c-.48.2-.85.43-1.09.67-.25.25-.4.53-.44.85-.04.28,0,.52.13.73.12.2.3.32.52.35.23.03.42-.04.59-.22.17-.18.32-.49.48-.93l.26-.82c.34-1.03.78-1.77,1.32-2.21.54-.45,1.19-.62,1.97-.51.92.12,1.61.51,2.09,1.15.47.64.65,1.45.52,2.41-.07.54-.23,1.02-.48,1.43-.24.41-.58.76-1,1.05M140.57,113.39c.22.46.31.91.28,1.34-.04.43-.2.84-.49,1.25-.4.56-.93.89-1.59.98-.66.09-1.29-.08-1.89-.51-.62-.44-.98-.99-1.1-1.64-.12-.66.03-1.28.46-1.88.31-.44.68-.74,1.12-.9.43-.16.9-.18,1.41-.05l1.36-1.9-2.88-2.06-1.25,1.75.67.48c-.45.06-.87.22-1.25.47-.39.25-.73.59-1.03,1-.37.52-.64,1.06-.8,1.62-.16.56-.22,1.13-.16,1.72.07.72.28,1.37.61,1.95.34.58.79,1.08,1.37,1.49.58.41,1.19.68,1.86.81.66.13,1.34.11,2.04-.05.57-.14,1.1-.37,1.58-.71.48-.33.9-.76,1.27-1.28.67-.94,1-1.95.98-3.01-.02-1.06-.38-2.05-1.08-2.97l-1.49,2.09ZM145.65,111.77l-1.61-.88.45-.82-4.84-2.65-.45.82-1.61-.88,2.07-3.78,1.61.88-.47.85,1.47.8,1.31-2.38-1.47-.8-.47.85-1.61-.88,2.07-3.78,1.61.88-.45.82,4.84,2.65.45-.82,1.61.88-2.07,3.78-1.61-.88.47-.85-1.77-.97-1.31,2.38,1.77.97.47-.85,1.61.89-2.07,3.78ZM147.22,98.96c.68.27,1.33.29,1.95.05.62-.24,1.05-.69,1.31-1.32.25-.64.24-1.26-.03-1.86-.28-.6-.76-1.04-1.45-1.31-.69-.28-1.35-.29-1.97-.05-.62.25-1.06.69-1.31,1.32-.25.64-.24,1.26.04,1.86.28.6.77,1.04,1.45,1.32M146.27,101.32c.66.26,1.32.38,2,.34.67-.03,1.33-.21,1.97-.54.53-.27.98-.63,1.36-1.06.39-.44.7-.95.93-1.55.24-.6.37-1.19.39-1.77.02-.58-.06-1.15-.26-1.71-.24-.68-.59-1.26-1.06-1.75-.46-.49-1.02-.87-1.68-1.13-.66-.26-1.32-.38-2-.34-.68.03-1.33.21-1.97.54-.53.27-.98.63-1.36,1.06-.38.44-.69.96-.93,1.55-.24.6-.37,1.19-.39,1.76-.02.58.06,1.15.26,1.71.24.68.59,1.26,1.05,1.75.47.49,1.03.86,1.69,1.13M150.83,89.45c.7.22,1.35.19,1.95-.09.6-.29,1-.76,1.21-1.41.21-.66.16-1.27-.16-1.85-.32-.58-.83-.98-1.54-1.21-.71-.23-1.36-.2-1.97.09-.6.29-1.01.76-1.21,1.41-.21.65-.15,1.27.17,1.85.32.58.84.99,1.54,1.21M150.05,91.86c-.68-.22-1.27-.55-1.77-1.01-.5-.45-.89-1.01-1.17-1.67-.23-.54-.36-1.11-.37-1.69-.02-.58.07-1.17.27-1.79.2-.61.47-1.15.82-1.61s.78-.85,1.29-1.16c.61-.37,1.26-.59,1.93-.67.67-.08,1.35-.01,2.02.2.67.22,1.26.55,1.76,1.01.5.46.89,1.01,1.18,1.67.23.54.36,1.11.38,1.69.02.58-.07,1.18-.27,1.79-.19.61-.47,1.14-.82,1.61-.35.46-.78.85-1.29,1.16-.61.37-1.26.59-1.93.67-.67.08-1.34.01-2.01-.2M157.48,83.23l1.65-7.64-3.55-.77-.33,1.52,1.63.92-.5,2.31-5.39-1.17.2-.9-1.8-.39-.9,4.17,1.8.39.2-.91,5.39,1.17-.2.91,1.8.39Z"/>
        <path class="cls-2" d="M149.58,55.84c-18.48-14.97-70.89-12.62-89.05-1.39-.4.34-.37,55.35,44.32,82.67,48.2-31.03,44.95-79.92,44.73-81.27"/>
        <path class="cls-2" d="M149.58,55.84c-18.48-14.97-70.89-12.62-89.05-1.39-.4.34-.37,55.35,44.32,82.67,48.2-31.03,44.95-79.92,44.73-81.27"/>
        <path class="cls-7" d="M148.47,56.31c-18.02-14.6-69.13-12.31-86.84-1.36-.39.33-.36,54.38,43.22,81.02,47-30.26,43.84-78.33,43.62-79.66"/>
        <path class="cls-7" d="M148.47,56.31c-18.02-14.6-69.13-12.31-86.84-1.36-.39.33-.36,54.38,43.22,81.02,47-30.26,43.84-78.33,43.62-79.66"/>
        <path class="cls-7" d="M75.27,105.13c6.43,11.31,15.84,22.44,29.59,30.84,14-9.01,23.55-19.61,30.05-30.07.1-.27.14-.42.13-.42-.13,0-3.7-.69-10.36-3.06-6.66-2.36-13.58-8.83-13.58-8.83l-4.55-5.07-1.63-1.58-2.87,3.49-2.58,2.76c-8.59,6.97-20.85,10.96-24.2,11.96"/>
        <path class="cls-4" d="M104.19,46.06c-16.68.31-33.98,3.59-42.55,8.9-.26.22-.57,24.54,13.32,49.63,24.82-7.49,29.31-18.25,29.31-18.25l-.08-40.28Z"/>
        <path class="cls-1" d="M148.47,56.31c-8.72-7.06-25.18-10.17-41.86-10.26h-1.08s.38,40.4.38,40.4c0,0,8.91,15.19,29.52,18.57,14.73-24.48,13.19-47.81,13.04-48.71"/>
        <path class="cls-2" d="M88.2,77.72h1.78s.95-.02,1.19,1l.02.85s-.03.3-.31.27l-2.06-.02s-.55-1.69-.56-2.09h-.06ZM83.44,63c-.42,1.01-.5,2.17-.25,3.27.09.42.46,1.29.69,1.56.1.17.19.32.32.44.08.11.17.3.29.34l.26.31c.1.08.19.23.32.27.07.15.4.36.53.48.08.06.14.12.23.18.09.07.18.11.26.17.12.12.29.19.45.29.09.05.14.09.23.14.08.04.18.1.25.13.09.04.12.04.2.1.12.03.18.07.33.07-.01-.17.01-.04-.05-.15l-.26-.36s-.03-.04-.06-.08c0,0,0-.01-.01-.02l-.05-.05s-.01-.01-.02-.02l-.43-.66-.38-.73c-.04-.16-.18-.45-.3-.87l-.05-.15c-.02-.37-.11-.35-.11-1.14,0-1.41.75-2.72.78-2.98.09-.1.21-.38.29-.54.07-.14.24-.42.27-.56.07-.06.45-.73.53-.87.15-.24.29-.49.45-.74.08-.13.14-.24.23-.37.17-.27.51-.89.66-1.17.45-.86.87-1.83.67-2.94-.07-.37-.17-.66-.27-.99-.1-.31-.21-.64-.35-.89-.03-.1-.06-.17-.11-.26-.03-.06-.03-.07-.06-.13l-.07-.12c-.02-.13-.16-.36-.22-.48-.07-.13-.25-.53-.34-.6-.03-.11-.17-.34-.23-.44-.04-.07-.07-.13-.12-.2-.05-.07-.08-.15-.13-.21-.15-.24-.26-.44-.42-.67-.08-.12-.14-.21-.22-.32-.08-.12-.14-.22-.23-.3l-.03-.03v-.03l-.03.03h.03s.03.04.03.04c.02.1.04.1.1.19.23.36.38.58.57.98l.16.39c.03.08,0,.02.03.06,0,.15.12.4.14.88.01.33,0,.57-.05.92-.29,1.81-3.71,7.04-4.46,8.83M81.04,83.47l-6.05,3.94-2.99,2.03-.62.3c2.02,2.33,5.22,3.87,5.23,3.87l1.89-1.54,5.59-4.5,1.63-.26,3.32-.64c1.06-.17,1.41-.75,1.41-.75-.16.18-.59.37-.59.37-.68.16-2.78.27-2.78.27-.98.01-1.27-.24-1.27-.24-.91-1.13-.02-1.9-.02-1.9-1.45-1.03-.22-2.15-.22-2.15,0,0-1.69,1.68-2.2,2-.51.32-.12-.26-.12-.26,0,0,1.7-1.94,1.95-2.12.25-.18.12-.53.12-.53l-.24-1.47c-.02-.38.08-.38.08-.38.52-.25.99-.13,1.26.96.27,1.09,1.32.92,1.32.92,1.03-.23.76-1.25.76-1.25,0,0-.29-1.27-.55-2.23-.27-.95-1.25-.72-1.25-.72l-2.48.33c-.99.02-1.08.75-1.08.75l-2.1,5.22ZM81.56,85.69c.27-.1.03-.31.03-.31l-.61-.95c-.1-.39.26-.05.26-.05,0,0,1.64,2.25,2.02,2.81.37.55-.07.21-.07.21l-.72-.91c-.39-.53-.68-.14-.68-.14,0,0-3.92,3.19-4.73,3.39-.81.2-.21-.32-.21-.32l4.71-3.73ZM86.53,84.57l4.17-.06s.7-.16.34.43c-.37.59-.61.81-1.52,1.16,0,0-1.79.25-3.01.15-1.22-.1-.83-1.91.02-1.68M90.91,82.24c.22-.04.29.24.29.24,0,0-.02,1.02-.05,1.42-.03.4-.51.34-.51.34l-3.89.04s-1.04.06-1.19-.88c-.15-.94.75-1.08.75-1.08l4.61-.08ZM88.86,80.12l1.94-.05s.4,0,.4.24c0,.25,0,1.35,0,1.35,0,0-.05.26-.29.28-.23.02-4.32.06-4.32.06,0,0-1.09-.32-.51-1.52.18.93,1.11,1.37,1.95,1.16.63-.16.69-.71.84-1.53M92.81,71.01c0,.06,0,.11,0,.17,0,1.15-.37,2.09-.8,2.09l-7.43-.12c-.43,0-.78-.96-.78-2.11,0-.06,0-.12,0-.17l9,.14ZM89.11,88.93c.34.56.96.92.95,2.18,0,1.26-.85,3.03-1.88,3.01-1.03-.02-1.85-1.81-1.85-3.07,0-1.26.71-1.6,1.05-2.15v-1.68s1.73.03,1.73.03v1.68ZM87.45,77.03v-1.93s-1.69-.03-1.69-.03c-.29,0-.53-.65-.53-1.43,0-.04,0-.08,0-.12,2.05.03,4.05.06,6.11.1,0,.04,0,.08,0,.12,0,.78-.25,1.42-.54,1.41l-1.62-.03v1.93s-1.73-.03-1.73-.03ZM91.99,60.37c.09.07.17.25.23.37.04.07.07.11.1.18.05.09.05.12.11.2.01.06.07.15.1.23.05.1.08.14.11.25.06.11.22.45.21.61l.12.54c.02.05.05.28.05.52v.4c0,.07-.02.12-.03.14,0,.49-.33,1.38-.48,1.75-.06.15-.11.22-.17.37-.09.2-.45.92-.61,1.01,0,.1-.06.15-.19.32-.17.22-.5.67-.69.8-.06.11-.15.19-.24.29-.09.1-.16.21-.27.27-.01.05,0,0-.03.06l-.47.58c-.1.11-.42.62-.47.66-.02.09-.1.24-.14.33-.06.14-.06.18-.17.27-.09-.16-.08-.25-.08-.5,0-1.51.43-2.39,1.01-3.36l.83-1.31c.05-.08.1-.19.16-.24.1-.32,1.25-2.02,1.26-3.64,0-.23-.02-.43-.07-.62-.05-.21-.14-.27-.18-.46l-.02-.07.02.07ZM90.48,57.56c.2.18.65,1.46.74,1.86.15.67.07.47.12.9.09.79-.25,1.7-.55,2.37-.29.68-.65,1.24-1.04,1.83-.05.08-.08.11-.13.19-.06.09-.19.3-.26.36-.03.11-.18.3-.25.41-.29.46-.58.98-.77,1.51-.03.09-.05.17-.08.24-.04.12-.11.37-.14.52-.04.28-.06.65.05.89.05.1.07.1.08.24-.09-.03-.28-.27-.35-.37-.1-.14-.17-.29-.25-.45-.34-.7-.48-1.7-.17-2.43.55-1.3,1.34-2.4,2.03-3.59l.51-.89c.01-.1.12-.29.17-.4.15-.35.32-.87.4-1.25.26-1.28-.08-1.7-.1-1.94l-.02-.07.02.07Z"/>
        <path class="cls-2" d="M135.31,106.07c-20.02-3.66-25.59-13.58-30.19-17.91-7.05,9.93-24.6,16.44-29.56,17.5-.34.08-.61-1.07-.61-1.07,24.53-7.59,29.31-18.25,29.31-18.25l-.08-40.28h1.34s.38,40.4.38,40.4c0,0,8.57,14.49,29.96,18.66l-.56.96Z"/>
        <polygon class="cls-2" points="131.58 57.42 128.3 71.31 135.78 59.21 129.57 71.69 138.53 61.59 130.68 72.29 141.26 64.33 131.7 73.2 143.63 67.05 132.28 74.02 145.52 69.57 134.25 74.21 121.02 74.01 108.84 69.08 121.77 73.73 112.22 65.08 122.62 72.78 114.91 61.48 123.53 72.07 117.95 58.47 124.64 71.53 121.85 56.05 125.8 71.24 126.93 55.81 127.2 71.19 131.58 57.42"/>
        <path class="cls-2" d="M127.26,78.92c.89.01,1.61.75,1.61,1.64,0,.89-.73,1.6-1.62,1.59s-1.61-.75-1.61-1.64c0-.89.73-1.6,1.62-1.59M127.08,88.8h0c6.19-9.37,14.03-5.42,17.29-12.3-4.21,4.7-15.74,1.55-17.29,12.3-1.43-10.79-12.99-8.01-17.15-12.84,3.18,6.99,11.06,3.27,17.15,12.84h0s0,0,0,0h0Z"/>
        <path class="cls-2" d="M118.47,105.9l-4.63,18.82s-4.53-1.48-6.61-.42l-1.95-.2-.63-17.15c4.95-.46,8.83-3.9,13.81-1.06"/>
        <path class="cls-2" d="M90.87,105.88l5.7,19.31s4-1.68,6.11-.55l2.6-.54-.61-17.38c-4.69-.58-9.56-3.16-13.8-.84"/>
        <path class="cls-7" d="M95.11,107.99c-.02-.09-.05-.18-.07-.28-.56,0-1.1.08-1.62.21.03.1.06.2.1.3.35-.1.71-.18,1.08-.23.04.14.08.27.12.4-.02,0-.05-.01-.08-.01-.03,0-.08,0-.13-.01-.05,0-.09,0-.13,0-.04,0-.07,0-.09,0-.09.02-.17.06-.22.11-.06.06-.1.13-.13.22-.02.08-.04.16-.03.25,0,.09.02.19.05.29.04.15.09.27.15.36.06.09.14.16.23.19.03.01.07.02.11.02.04,0,.1,0,.16,0,.03-.11.06-.21.09-.32-.02.02-.05.02-.08.02-.04,0-.08,0-.13-.02-.07-.02-.13-.06-.18-.11-.05-.06-.08-.13-.11-.23-.02-.06-.02-.12-.02-.17,0-.05.01-.1.03-.15.02-.04.05-.08.09-.11.04-.03.08-.05.14-.06.04,0,.08,0,.12,0,.04,0,.09,0,.14.01.02,0,.03,0,.05,0,.02,0,.04,0,.06.02.05.17.09.35.12.52.03.17.04.34.05.51.08-.02.16-.04.24-.06-.01-.27-.05-.56-.12-.84-.07-.29-.15-.57-.24-.86.08,0,.17,0,.25,0M97.1,108.33c-.09-.03-.17-.05-.26-.07.05.24.11.49.15.73.04.24.06.48.07.72-.09-.02-.18-.03-.27-.05,0-.13,0-.26-.02-.38-.02-.13-.04-.26-.06-.39-.18-.03-.35-.06-.52-.08.01.07.03.14.04.21,0,.04,0,.08,0,.11,0,.03,0,.05-.01.07-.02.06-.06.1-.12.13-.05.03-.13.05-.21.04-.05,0-.11-.01-.15-.03-.04-.01-.09-.03-.12-.07-.04-.04-.08-.08-.11-.14-.03-.06-.05-.12-.07-.2-.02-.08-.02-.16,0-.22.02-.06.05-.11.1-.15.02-.01.04-.02.07-.03.03-.01.06-.02.11-.02.05,0,.09,0,.14,0-.04-.17-.08-.33-.13-.5-.22-.02-.44-.04-.66-.04-.02-.09-.05-.18-.07-.28.67.06,1.36.19,2.05.38.02.08.03.16.05.23M96.66,108.65c-.03-.15-.07-.31-.11-.46-.18-.04-.36-.08-.54-.11.04.16.08.32.12.48.18.03.35.06.53.09M95.98,109c-.01-.07-.03-.14-.04-.21-.06,0-.12,0-.18,0-.01,0-.02,0-.03.01,0,0-.01,0-.02.01-.01.02-.02.04-.03.06,0,.03,0,.06,0,.1.01.06.03.1.06.14.01.02.03.03.05.04.02,0,.04.01.06.01.06,0,.1-.02.11-.08,0,0,0-.02,0-.03,0-.01,0-.03,0-.04M99.16,109.05c0-.07-.02-.15-.03-.22-.7-.25-1.4-.51-2.11-.74.02.08.03.16.05.24.15.04.3.09.44.14.04.03.07.05.1.07.03.02.05.04.07.06.06.05.11.11.14.16.03.05.06.1.06.15,0,.04,0,.08,0,.1-.01.03-.03.04-.06.05-.03,0-.06.01-.09.01-.03,0-.08,0-.12-.02-.03,0-.06-.02-.09-.04-.03-.02-.07-.03-.11-.06-.01,0-.03-.02-.04-.03-.02,0-.03-.02-.06-.04.02.08.03.16.04.24.05.02.1.05.15.07.01.07.03.13.04.18.01.05.03.1.05.13.05.11.12.2.21.28.09.07.2.13.34.18.03.01.06.02.09.03.03,0,.05.02.07.02.02,0,.04.01.05.02.01,0,.02,0,.02,0,.01-.08.03-.17.04-.25-.01,0-.02,0-.04,0-.01,0-.03,0-.05,0-.02,0-.04,0-.06,0-.02,0-.04,0-.06-.01-.08-.03-.15-.06-.21-.1-.06-.04-.11-.08-.15-.13-.02-.03-.04-.06-.06-.1-.02-.03-.03-.07-.03-.11,0,0,0-.01,0-.02,0-.01,0-.02,0-.03.06.02.11.03.17.03.05,0,.1-.01.14-.04.04-.02.07-.05.09-.1.02-.04.02-.1,0-.16-.02-.1-.07-.21-.15-.31-.01-.02-.03-.03-.05-.05-.02-.02-.04-.04-.07-.06.24.08.48.17.72.26.03.16.05.33.08.49-.14-.05-.28-.1-.41-.15.01.07.02.15.03.22.14.05.27.1.41.15.01.11.02.21.03.32,0,.11,0,.21,0,.32.09.03.18.07.27.1,0-.22-.01-.45-.04-.67-.03-.23-.06-.45-.09-.68.09.03.17.06.25.09M99.88,109.29c-.08-.03-.17-.05-.25-.08.02.23.05.46.07.69.02.23.03.45.03.68-.09-.03-.18-.07-.27-.1,0-.22-.01-.45-.03-.67-.02-.23-.05-.45-.08-.68-.08-.03-.16-.05-.23-.08,0-.08-.02-.15-.03-.22.26.09.51.17.77.25,0,.08.02.15.02.23M99.64,109c-.07-.02-.13-.04-.19-.06-.01-.03-.06-.1-.14-.2-.05-.07-.1-.14-.16-.2-.05-.06-.1-.12-.16-.17-.04-.04-.08-.07-.12-.1-.04-.03-.09-.06-.13-.08-.02,0-.03-.02-.05-.02-.02,0-.04-.02-.06-.02.02-.07.05-.15.07-.22.04.02.07.04.11.06.03.02.07.04.11.05.05.03.09.08.15.13.05.05.1.11.16.18.04.05.09.11.13.18.05.07.09.15.15.24.02.03.04.07.06.11.02.04.05.09.08.14M101.84,109.61c0-.09,0-.17,0-.26-.67-.02-1.33-.12-2-.29,0,.08.02.15.02.23.22.06.44.13.66.18.01.15.02.3.03.44-.05-.01-.09-.02-.14-.03-.04,0-.08,0-.11,0-.03,0-.06,0-.08,0-.06.01-.1.04-.13.08-.03.04-.04.1-.03.17,0,.06.02.12.04.18.02.06.05.11.09.15.04.04.08.08.12.11.04.03.09.06.15.07.09.03.16.03.22.02.06-.01.1-.04.13-.09,0-.02.02-.04.02-.06,0-.03.01-.06,0-.1,0-.06,0-.13,0-.2.17.04.34.07.51.1,0,.13,0,.27,0,.4,0,.13,0,.26,0,.4.09.02.17.04.26.05,0-.26,0-.51,0-.77,0-.26,0-.51-.01-.77.08,0,.17,0,.25,0M101.34,110.06c-.17-.03-.34-.05-.52-.09,0-.15-.02-.3-.03-.45.18.03.35.05.53.07,0,.16.01.31.01.47M100.59,110.33s0,.03,0,.04c0,.01,0,.02,0,.03-.02.04-.06.05-.12.04-.02,0-.04-.02-.06-.03-.02-.01-.03-.03-.05-.05-.03-.04-.04-.08-.04-.13,0-.03,0-.06,0-.08,0-.02.02-.04.04-.04,0,0,.01,0,.02,0,0,0,.02,0,.03,0,.06.02.12.03.18.05,0,.06,0,.13,0,.19M102.57,109.53c-.08.01-.17.02-.25.04,0,.28,0,.56-.01.84,0,.28-.01.56-.01.83-.09,0-.17-.01-.26-.02,0-.27,0-.54,0-.81,0-.27,0-.54,0-.81-.08,0-.16,0-.23,0,0-.09,0-.17,0-.26.25-.01.51-.06.77-.1,0,.09,0,.19,0,.28"/>
        <path class="cls-7" d="M106.78,109.79c0-.09,0-.18,0-.28-.43,0-.85-.05-1.28-.1,0,.09,0,.19,0,.28.42.05.85.09,1.27.09M106.97,110.4c0-.09,0-.18,0-.26-.27,0-.55,0-.82-.03,0,.09,0,.18,0,.26.04,0,.08,0,.13.01.02.02.04.03.05.04.01.01.02.02.03.03.03.04.05.07.07.11.01.04.02.09.02.13,0,.05,0,.09-.01.13-.01.04-.02.07-.04.09-.02.03-.04.04-.07.06-.03.01-.07.02-.12.01-.06,0-.11-.04-.16-.09-.05-.05-.09-.13-.12-.22-.03-.07-.05-.15-.06-.23-.01-.08-.02-.16-.02-.24,0-.04,0-.09,0-.13-.08,0-.16-.02-.24-.03,0,.04,0,.08,0,.12,0,.12,0,.23.02.34.02.1.05.2.08.29.05.14.12.24.21.32.09.08.19.13.31.13.15,0,.27-.04.35-.13.04-.04.07-.09.09-.15.02-.06.03-.12.03-.2,0-.05,0-.11-.02-.16-.01-.05-.04-.09-.07-.14,0-.01-.02-.03-.04-.05-.02-.02-.03-.03-.05-.05.14,0,.29,0,.44,0M108.49,109.66c-.08.01-.16.02-.24.03,0,.27-.01.55-.02.82,0,.27,0,.55-.01.82-.08.01-.17.03-.25.04,0-.17,0-.34,0-.51-.02.02-.05.05-.06.06-.02.02-.04.03-.05.04-.05.04-.11.07-.16.09-.06.02-.12.03-.18.04-.13.01-.24,0-.34-.06-.09-.05-.16-.13-.21-.25-.03-.07-.06-.15-.07-.23-.02-.09-.02-.18-.02-.27,0,0,0-.01,0-.02,0,0,0-.01,0-.02,0,0,0-.01,0-.02,0,0,0-.01,0-.02,0,0,.02,0,.04.01.02,0,.04,0,.07.01.03,0,.05,0,.07.01.02,0,.03,0,.04,0,.04,0,.08,0,.11-.01.03,0,.06-.02.08-.03.03-.02.05-.05.07-.08.01-.03.02-.07.02-.12,0-.03,0-.06,0-.08,0-.02-.02-.05-.03-.07-.01-.02-.03-.04-.04-.05-.02-.01-.04-.02-.06-.03-.16,0-.32,0-.47,0,0-.09,0-.18,0-.28.58,0,1.16-.05,1.74-.12,0,.09,0,.18,0,.27M107.97,110.54c0-.14,0-.27,0-.41,0-.14,0-.27,0-.41-.16.02-.32.03-.48.04.02.01.03.03.05.05.02.02.03.05.04.07.01.03.02.06.03.09,0,.03.01.06.01.08,0,.08-.02.14-.04.2-.03.06-.06.1-.11.14-.04.02-.07.04-.12.06-.04.01-.09.02-.15.03-.03,0-.06,0-.07,0-.02,0-.03,0-.03,0,0,.03.02.07.03.1,0,.03.02.06.03.09.04.06.08.1.14.13.06.02.13.03.21.03.08,0,.16-.04.24-.09.04-.03.08-.06.11-.09.03-.03.06-.07.09-.1M109.17,109.53c0-.09,0-.18,0-.26-.24.05-.48.09-.72.13,0,.09,0,.18,0,.27.07-.01.15-.02.22-.04,0,.27-.02.54-.02.81,0,.27-.01.54-.01.81.09-.02.17-.04.26-.06,0-.27,0-.54.02-.81,0-.27.02-.54.03-.81.08-.01.16-.03.24-.05M108.97,109.31c-.06.01-.12.02-.18.04,0-.03-.04-.09-.11-.18-.04-.06-.09-.12-.14-.16-.05-.05-.1-.09-.14-.12-.04-.02-.07-.04-.11-.06-.04-.01-.08-.02-.12-.02-.01,0-.03,0-.05,0-.02,0-.04,0-.06,0,.02-.1.05-.21.07-.31.03,0,.06,0,.1.01.03,0,.06,0,.1,0,.04.02.09.04.13.08.05.04.09.08.14.13.04.04.08.09.12.15.04.06.09.13.13.21.02.03.03.06.05.1.02.04.04.08.06.13M110.85,108.74c-.1.03-.21.06-.31.08-.05-.05-.1-.09-.15-.13-.04-.04-.08-.06-.12-.09-.1-.07-.2-.12-.29-.15-.09-.03-.17-.03-.23-.02-.05.01-.09.03-.12.05-.03.02-.06.06-.08.09-.02.04-.04.08-.05.12-.01.05-.02.09-.02.15,0,.05,0,.09.02.14.01.04.03.08.05.11,0,0,.02.02.03.03.01.01.02.02.04.04.09-.02.18-.04.28-.07,0,.09,0,.17-.01.26-.08.02-.16.04-.24.06-.01.27-.02.53-.03.8,0,.26-.01.53-.02.8-.09.02-.17.05-.26.07,0-.27,0-.53.02-.8,0-.27.02-.53.03-.8-.07.02-.15.03-.22.05,0-.09,0-.18,0-.26.06-.01.12-.02.18-.04-.02-.02-.03-.03-.04-.05-.01-.01-.02-.03-.03-.04-.02-.04-.04-.08-.05-.13-.01-.05-.02-.1-.02-.16,0-.08.02-.15.04-.21.03-.07.06-.13.11-.18.05-.06.1-.1.16-.14.06-.04.12-.06.19-.08.09-.02.18-.02.27-.01.09.01.19.04.29.08.07.03.14.07.21.11.07.04.14.1.21.16.05.04.09.08.12.11.03.03.04.05.04.06M111.45,108.95c0-.09,0-.17.01-.26-.54.15-1.08.29-1.61.43,0,.09,0,.17-.01.26.37-.09.74-.19,1.11-.29,0,.12-.01.24-.02.37-.02,0-.04,0-.07,0-.03,0-.07,0-.12,0-.05,0-.09,0-.12.01-.04,0-.07.01-.1.02-.09.03-.18.06-.25.11-.08.05-.14.11-.2.19-.05.07-.09.14-.12.22-.03.08-.04.16-.04.25,0,.13.02.23.06.32.05.08.12.14.22.18.03.01.07.02.12.02.05,0,.11,0,.17,0,.04-.1.08-.2.12-.3-.02.01-.05.02-.09.02-.04,0-.08,0-.13-.02-.07-.02-.12-.05-.16-.1-.03-.05-.05-.12-.05-.2,0-.05.01-.1.03-.15.02-.05.05-.09.08-.13.03-.04.07-.07.12-.1.04-.03.1-.05.15-.06.04-.01.08-.02.12-.02.04,0,.09,0,.13,0,.01,0,.03,0,.05,0,.02,0,.03,0,.05,0,0,.16-.02.32-.02.47,0,.16,0,.31,0,.47.09-.02.17-.05.26-.07,0-.26.01-.53.02-.79.01-.27.03-.53.05-.79.08-.02.16-.04.24-.06M113.24,108.53c-.08.02-.16.03-.24.05-.02.28-.04.56-.06.83-.02.28-.03.56-.03.83-.09.01-.18.02-.27.04,0-.27.02-.55.03-.82.02-.27.04-.55.06-.83-.17.04-.34.08-.51.12.02.03.04.05.05.07.01.02.02.04.04.06.03.06.05.13.06.2.01.07.01.15,0,.23,0,.1-.02.2-.04.28-.02.08-.05.16-.08.23-.04.08-.1.15-.16.2-.06.05-.14.08-.23.1-.06.01-.11.02-.16,0-.05,0-.09-.03-.13-.06-.04-.03-.07-.08-.09-.13-.02-.05-.02-.11-.02-.18,0-.02,0-.05,0-.07,0-.03.02-.06.02-.1,0-.01,0-.03.01-.04,0-.02.01-.03.02-.06.08-.02.17-.04.25-.07,0,.02-.01.04-.02.05,0,.02-.01.03-.01.04-.01.04-.02.07-.03.1,0,.03,0,.05,0,.08,0,.04,0,.07.01.1,0,.03.01.05.02.07.01.03.03.04.05.05.02,0,.05,0,.08,0,.04,0,.07-.03.1-.06.03-.03.05-.08.07-.14.01-.04.02-.09.03-.15,0-.06.02-.12.02-.19,0-.09,0-.17,0-.24,0-.07-.03-.14-.06-.2,0-.02-.02-.04-.04-.06-.01-.02-.04-.04-.06-.06-.18.05-.35.1-.53.14,0-.09.01-.17.01-.26.61-.17,1.22-.32,1.83-.45,0,.09-.01.18-.02.28M113.43,107.45c0-.08,0-.15,0-.23-.02-.01-.06-.03-.1-.04-.02,0-.04,0-.06,0-.02,0-.04,0-.05,0-.06.01-.12.04-.17.07-.05.03-.1.08-.14.13-.04.05-.08.11-.1.16-.02.06-.04.12-.04.18,0,.05,0,.11,0,.16,0,.05.02.11.04.16.03.07.05.13.07.17.02.04.04.07.06.08.05,0,.1-.02.14-.03-.01-.03-.02-.06-.03-.08,0-.02-.01-.05-.02-.06-.01-.06-.02-.1-.03-.15,0-.05,0-.09,0-.14,0-.05,0-.1.02-.15.01-.04.03-.08.05-.12.02-.04.05-.07.08-.09.03-.02.07-.04.11-.05.01,0,.03,0,.04,0,.02,0,.04,0,.06,0,0,0,.01,0,.02,0,.01,0,.02,0,.03,0M115.11,108.42c0-.1.02-.21.03-.31-.63,0-1.26.05-1.9.15,0,.09-.01.18-.02.28.21-.04.42-.06.63-.09-.02.18-.03.36-.05.54-.05,0-.09,0-.14.01-.04.01-.08.03-.11.04-.03.01-.06.03-.08.04-.06.04-.11.1-.15.16-.03.06-.06.14-.06.23,0,.08,0,.14.02.2.01.06.04.11.08.15.03.03.07.06.11.08.04.02.09.02.15.02.08,0,.16-.03.22-.06.06-.04.11-.09.14-.16.01-.02.02-.05.03-.08,0-.03.02-.07.02-.12,0-.08.01-.16.02-.24.17,0,.33,0,.5,0-.01.16-.02.32-.03.48,0,.16-.01.32-.02.48.09,0,.17.02.25.04,0-.31.02-.62.05-.92.02-.31.05-.62.08-.93.08,0,.16,0,.23.01M114.57,108.96c-.17,0-.33,0-.5,0,.02-.18.03-.36.05-.54.17,0,.33-.01.5-.02-.02.19-.03.38-.05.56M113.78,109.49s0,.04-.01.05c0,.02,0,.03-.01.04-.02.06-.07.09-.13.09-.02,0-.04,0-.06,0-.01,0-.03-.02-.04-.04-.02-.03-.03-.08-.03-.14,0-.04,0-.07.02-.1.01-.03.03-.06.04-.07,0,0,.01-.01.02-.02,0,0,.02-.01.03-.02.06,0,.12-.01.18-.02,0,.08-.01.15-.02.23M116.79,108.77c-.08-.02-.16-.05-.23-.07-.04.35-.08.71-.11,1.06-.03.35-.05.71-.06,1.06-.08-.04-.16-.08-.24-.12,0-.21.01-.42.03-.64-.02.02-.05.03-.07.04-.02,0-.04.02-.05.02-.05.01-.11.02-.17.02-.06,0-.12,0-.18-.03-.13-.04-.23-.11-.32-.2-.09-.09-.15-.21-.2-.34-.03-.08-.04-.17-.05-.27,0-.1,0-.2,0-.31,0,0,0-.01,0-.02,0,0,0-.01,0-.02,0,0,0-.01,0-.02,0,0,0-.01,0-.02,0,0,.01,0,.03.02.02,0,.04.01.07.02.03.01.05.02.07.02.02,0,.03.01.03.01.04.01.08.01.12.01.03,0,.06,0,.08-.01.03-.01.06-.04.07-.08.02-.03.03-.08.04-.14,0-.03,0-.07,0-.1,0-.03-.01-.06-.02-.09,0-.03-.02-.05-.04-.07-.01-.02-.03-.04-.05-.05-.16-.03-.31-.04-.47-.05,0-.1.02-.21.03-.31.58.05,1.15.16,1.71.31-.01.12-.02.24-.03.36M116.21,109.66c.02-.17.03-.34.05-.51.02-.17.04-.34.05-.52-.16-.05-.31-.08-.47-.11.02.02.03.04.04.07.01.03.02.06.04.1.01.04.02.08.02.11,0,.04,0,.07,0,.11,0,.09-.03.17-.06.23-.03.06-.07.1-.13.13-.04.02-.07.03-.12.03-.04,0-.09,0-.14-.01-.03,0-.06-.02-.08-.02-.02,0-.03-.01-.03-.02,0,.04.01.08.02.12,0,.04.01.08.02.12.03.08.07.15.13.2.05.05.12.09.2.11.08.02.16.01.24-.01.04-.01.08-.03.12-.05.04-.02.07-.05.09-.08"/>
        <path class="cls-3" d="M51,65.2s0,33.72,28.57,65.73"/>
        <g>
          <path class="cls-12" d="M59.08,71.44c-.08-.61-.38-1.05-.88-1.32-.51-.27-1.34-.33-2.49-.18-2.21.29-3.23,1.05-3.07,2.26.06.48.2.9.4,1.26l1.51-.2c.08-.43.21-.73.38-.91h1.08s.42,3.13.42,3.13l-1.04.27c-.16-.1-.32-.29-.5-.57l-2.48.33c-.37-.39-.65-.83-.85-1.33-.2-.5-.35-1.13-.45-1.9-.17-1.28.07-2.26.72-2.96s1.79-1.15,3.43-1.37c1.64-.22,2.9-.02,3.78.58.88.61,1.4,1.53,1.57,2.76s.02,2.29-.44,3.15c-.05,0-.16.02-.31.04-.15.02-.42.02-.79,0-.37-.01-.69-.06-.93-.15l-.16-1.23c.23-.17.59-.31,1.08-.42.08-.4.1-.82.04-1.26Z"/>
          <path class="cls-12" d="M60.16,83.38c-.6.14-1.14.07-1.63-.2-.49-.28-.91-.67-1.25-1.18-.08.48-.24.82-.46,1.03l-1.6,1.39c-.04.45-.14.76-.29.96l-1.04.11-.53-2.22,2.86-2.28c.29-.22.41-.42.37-.6l-.2-.85-2.1.5c.01.67-.07,1.11-.23,1.32l-1.12.13-.84-3.55,1.06-.39c.18.08.38.29.61.62l6.01-1.42c.05-.39.14-.67.28-.83l1.12-.13.79,3.35c.27,1.23.29,2.19.06,2.88-.24.69-.85,1.15-1.85,1.38ZM60.5,79.36l-.18-.78-2.5.59.18.75c.14.6.34,1.02.59,1.27.25.25.61.32,1.07.21s.76-.34.87-.68.11-.8-.03-1.37Z"/>
          <path class="cls-12" d="M55.34,90.4c-.4-1.21-.35-2.24.15-3.07.5-.83,1.54-1.51,3.11-2.03,1.57-.52,2.84-.57,3.81-.15.97.42,1.65,1.24,2.06,2.47.4,1.23.37,2.25-.09,3.08s-1.49,1.49-3.05,2.01c-1.57.52-2.85.57-3.86.15-1.01-.42-1.72-1.23-2.12-2.45ZM61.88,86.86c-.55-.16-1.37-.06-2.48.3-1.1.36-1.85.79-2.25,1.28-.4.49-.5,1.02-.32,1.59.19.57.57.93,1.15,1.09.58.16,1.42.06,2.52-.31,2.05-.68,2.88-1.63,2.47-2.86-.19-.57-.56-.94-1.1-1.1Z"/>
          <path class="cls-12" d="M60.49,101.34c-.74-.27-1.34-.96-1.81-2.06-.47-1.1-.54-1.99-.21-2.65.33-.66,1.05-1.23,2.15-1.7l4.02-1.7c-.02-.36.03-.65.13-.86l1.09-.31,1.23,2.91-.98.56c-.21-.07-.45-.23-.71-.5l-4.07,1.73c-.6.25-1,.54-1.2.85s-.2.73.02,1.23c.21.51.51.8.9.88.38.08.86,0,1.44-.25l4.07-1.73c-.02-.39.02-.68.13-.86l1.09-.31,1.16,2.72-.98.56c-.21-.07-.45-.23-.71-.5l-4.02,1.7c-1.09.46-2,.56-2.73.29Z"/>
          <path class="cls-12" d="M65.43,105.79l-.28-.54-1.41.74c.18.65.21,1.09.1,1.33l-1.06.4-1.68-3.24.93-.64c.19.03.44.18.74.45l5.48-2.85c-.05-.39-.03-.68.06-.87l1.06-.4,1.65,3.18c.56,1.12.79,2.05.69,2.8-.1.75-.65,1.38-1.64,1.9-1.81.94-3.36.19-4.64-2.27ZM69.61,103.85l-.37-.72-2.78,1.45.42.8c.28.54.6.89.96,1.05.35.16.8.1,1.33-.18.53-.28.81-.61.84-.99.03-.39-.1-.85-.39-1.41Z"/>
          <path class="cls-12" d="M69.05,118.56c-.71-1.07-.93-2.07-.67-3.01.26-.94,1.08-1.86,2.46-2.78,1.38-.91,2.59-1.3,3.63-1.15s1.92.76,2.64,1.83c.72,1.08.96,2.07.72,2.99-.23.92-1.04,1.83-2.41,2.75-1.37.91-2.6,1.3-3.69,1.17-1.08-.13-1.98-.73-2.69-1.8ZM74.41,113.42c-.57-.01-1.34.31-2.31.95-.97.64-1.58,1.25-1.83,1.83s-.21,1.12.12,1.62.8.75,1.4.75c.6,0,1.39-.32,2.35-.96,1.8-1.2,2.34-2.33,1.62-3.42-.33-.5-.79-.76-1.36-.77Z"/>
          <path class="cls-12" d="M83.56,122.44l-1.86,1.44-.71-.72c.02-.27.18-.61.49-1.01l-1.29-1.67-1.95,1.5,1.15,1.49c.28-.08.5-.11.66-.08l.45.73-1.9,1.47-.61-.61c0-.15.08-.35.24-.61l-1.15-1.49-1.78,1.37c.26.56.38,1.02.36,1.38l-.97.58-2.28-2.95.81-.79c.19,0,.46.1.81.32l4.89-3.77c-.12-.38-.15-.66-.09-.87l.97-.58,3.77,4.88Z"/>
        </g>
      </g>
    </g>
  </g>
  <g>
    <path class="cls-10" d="M212.98,68.18v29.37c0,1.93.7,3.37,2.11,4.33.96.63,1.44,1.37,1.44,2.22v2.5c0,.85-.48,1.28-1.44,1.28h-17.32c-.82,0-1.22-.39-1.22-1.17v-2.61c0-.81.48-1.55,1.44-2.22,1.41-1,2.11-2.44,2.11-4.33V31.82c0-1.89-.7-3.31-2.11-4.28-.96-.63-1.44-1.39-1.44-2.28v-2.44c0-.85.48-1.28,1.44-1.28h14.99c8.14,0,14.44,2.12,18.91,6.36,4.46,4.24,6.69,9.87,6.69,16.91,0,15.58-8.53,23.37-25.59,23.37M212.98,28.15v33.48c3.33,0,5.76-.38,7.3-1.14,1.54-.76,2.77-2.28,3.69-4.55.92-2.28,1.39-5.8,1.39-10.58s-.43-8.28-1.28-10.63c-.85-2.35-2.13-4.01-3.83-4.97-1.7-.96-4.13-1.5-7.27-1.61"/>
    <path class="cls-10" d="M250.27,32.47l-.52-3.77c-.17-1.22-.26-1.9-.26-2.05,0-.37.28-.68.83-.94l9.41-4.38c.15-.07.32-.11.5-.11.52,0,.85.33,1,.99l15.05,75.29c.26,1.37.58,2.35.97,2.94.39.59,1.14,1.22,2.25,1.89.85.52,1.28,1.11,1.28,1.78v2.44c0,.89-.35,1.33-1.05,1.33h-18.54c-1,0-1.5-.44-1.5-1.33v-2.44c0-.85.6-1.57,1.79-2.17,1.45-.78,2.18-1.83,2.18-3.17,0-.37-.04-.8-.11-1.28l-2.32-11.6h-14.51l-2.32,11.16c-.11.48-.17.83-.17,1.05,0,1.11.83,2.33,2.48,3.66,1.07.89,1.6,1.66,1.6,2.33v2.44c0,.89-.54,1.33-1.61,1.33h-11.6c-1.3,0-1.94-.44-1.94-1.33v-2.89c0-.78.41-1.41,1.22-1.89,1.52-.92,2.52-2.5,3-4.72l12.91-64.58ZM254.1,50.31l-5.81,28.48h11.5l-5.69-28.48Z"/>
    <path class="cls-10" d="M287.1,97.55V31.82c0-1.89-.7-3.31-2.11-4.27-.96-.63-1.44-1.39-1.44-2.28v-2.44c0-.85.48-1.28,1.44-1.28h17.32c.81,0,1.22.39,1.22,1.17v2.55c0,.85-.48,1.61-1.44,2.28-1.41,1-2.11,2.42-2.11,4.27v69.46h4.72c2.78,0,4.93-.86,6.47-2.58,1.54-1.72,2.67-4.65,3.41-8.8.3-1.59.51-2.51.64-2.75.13-.24.45-.36.97-.36h2.61c1,0,1.5.41,1.5,1.22v19.88h-35.37c-1.22,0-1.83-.56-1.83-1.67v-2.11c0-.85.54-1.59,1.61-2.22,1.59-.96,2.39-2.41,2.39-4.33"/>
    <path class="cls-10" d="M326.75,97.55V31.82c0-1.89-.7-3.31-2.11-4.27-.96-.63-1.44-1.39-1.44-2.28v-2.44c0-.85.48-1.28,1.44-1.28h17.32c.81,0,1.22.39,1.22,1.17v2.55c0,.85-.48,1.61-1.44,2.28-1.41,1-2.11,2.42-2.11,4.27v69.46h4.72c2.78,0,4.93-.86,6.47-2.58,1.54-1.72,2.67-4.65,3.41-8.8.3-1.59.51-2.51.64-2.75.13-.24.45-.36.97-.36h2.61c1,0,1.5.41,1.5,1.22v19.88h-35.37c-1.22,0-1.83-.56-1.83-1.67v-2.11c0-.85.54-1.59,1.61-2.22,1.59-.96,2.39-2.41,2.39-4.33"/>
    <path class="cls-10" d="M379.19,32.47l-.52-3.77c-.17-1.22-.26-1.9-.26-2.05,0-.37.28-.68.83-.94l9.41-4.38c.15-.07.32-.11.5-.11.52,0,.85.33,1,.99l15.05,75.29c.26,1.37.58,2.35.97,2.94.39.59,1.14,1.22,2.25,1.89.85.52,1.28,1.11,1.28,1.78v2.44c0,.89-.35,1.33-1.05,1.33h-18.54c-1,0-1.5-.44-1.5-1.33v-2.44c0-.85.6-1.57,1.79-2.17,1.45-.78,2.18-1.83,2.18-3.17,0-.37-.04-.8-.11-1.28l-2.32-11.6h-14.51l-2.32,11.16c-.11.48-.17.83-.17,1.05,0,1.11.83,2.33,2.48,3.66,1.07.89,1.6,1.66,1.6,2.33v2.44c0,.89-.54,1.33-1.61,1.33h-11.6c-1.3,0-1.94-.44-1.94-1.33v-2.89c0-.78.41-1.41,1.22-1.89,1.52-.92,2.52-2.5,3-4.72l12.91-64.58ZM383.02,50.31l-5.81,28.48h11.5l-5.69-28.48Z"/>
    <path class="cls-10" d="M429.99,71.93l7.6-38.62c.15-.63.22-1.16.22-1.61,0-1.55-.84-2.77-2.51-3.66-1.27-.7-1.9-1.48-1.9-2.33v-2.77c0-.92.52-1.39,1.56-1.39h13.15c1.11,0,1.67.46,1.67,1.39v2.77c0,.92-.52,1.65-1.55,2.16-1.78.92-2.91,2.59-3.39,4.99l-14.45,74.41c-.22,1.14-.76,1.71-1.6,1.71h-2.27c-.85,0-1.38-.58-1.6-1.73l-14.67-73.95c-.56-2.66-1.72-4.57-3.5-5.71-.96-.63-1.44-1.37-1.44-2.22v-2.55c0-.85.48-1.28,1.45-1.28h17.2c.89,0,1.34.46,1.34,1.39v2.77c0,.7-.47,1.33-1.4,1.89-1.27.81-1.9,1.85-1.9,3.1,0,.48.06,1.05.17,1.72l7.83,39.51Z"/>
    <path class="cls-10" d="M469.32,97.55c0,1.93.7,3.37,2.11,4.33.96.63,1.44,1.37,1.44,2.22v2.5c0,.85-.48,1.28-1.44,1.28h-17.32c-.82,0-1.22-.39-1.22-1.17v-2.61c0-.81.48-1.55,1.44-2.22,1.41-1,2.11-2.44,2.11-4.33V31.82c0-1.89-.7-3.31-2.11-4.27-.96-.63-1.44-1.39-1.44-2.28v-2.44c0-.85.48-1.28,1.44-1.28h17.32c.81,0,1.22.39,1.22,1.17v2.55c0,.85-.48,1.61-1.44,2.28-1.41,1-2.11,2.42-2.11,4.27v65.74Z"/>
  </g>
  <g>
    <path class="cls-10" d="M206.66,140.71h5.71c.38,0,.62.04.71.12.1.08.15.26.15.53,0,.12-.02.39-.07.79-.08.98-.11,1.8-.11,2.45v6.35c0,.42.11.74.34.95.18.15.27.36.27.61v.82c0,.32-.19.61-.57.87-.38.26-1.16.61-2.34,1.03-1.18.42-2.49.63-3.95.63-6.85,0-10.27-5.58-10.27-16.74,0-3.19.33-6.23,1-9.14.67-2.91,1.81-5.35,3.43-7.33,1.62-1.98,3.36-2.97,5.2-2.97.92,0,1.93.26,3.02.78.32.15.57.23.75.23.09,0,.26-.06.52-.18.2-.09.36-.14.5-.14h.88c.42,0,.63.2.63.61v7.48c0,.44-.19.66-.57.66h-.95c-.3,0-.48-.03-.53-.1-.05-.07-.18-.55-.37-1.44-.76-3.52-2.08-5.28-3.97-5.28-.91,0-1.66.42-2.24,1.25s-1.01,2.75-1.26,5.77c-.25,3.01-.37,6.01-.37,9.01,0,3.14.12,5.73.36,7.76.24,2.03.53,3.56.86,4.6.33,1.03.73,1.74,1.19,2.12.46.38,1,.57,1.62.57,1.33,0,2-.95,2-2.86v-4.9c0-.85-.11-1.45-.32-1.83-.21-.37-.66-.7-1.34-.99-.33-.14-.5-.34-.5-.61v-.95c0-.35.19-.52.57-.52"/>
    <path class="cls-10" d="M222.15,138.92v12.29c0,.79.29,1.38.86,1.77.39.26.59.56.59.91v1.02c0,.35-.2.52-.59.52h-7.07c-.33,0-.5-.16-.5-.48v-1.07c0-.33.2-.63.59-.91.57-.41.86-1,.86-1.77v-26.84c0-.77-.29-1.35-.86-1.75-.39-.26-.59-.57-.59-.93v-1c0-.35.2-.52.59-.52h5.94c3.36,0,5.91.76,7.66,2.27,1.75,1.51,2.63,3.7,2.63,6.55,0,4.55-2.11,7.49-6.33,8.82,1.24.6,2.18,1.29,2.82,2.05.64.76,1.14,1.89,1.49,3.37l1.66,7.19c.21.92.42,1.55.62,1.87.2.33.54.63,1.01.92.14.09.2.23.2.43v1.29c0,.33-.17.5-.5.5h-4.52c-.44,0-.72-.24-.84-.73l-3.1-12.47c-.33-1.38-.7-2.27-1.1-2.68-.4-.41-.91-.62-1.53-.63M222.15,122.91v13.31c1.63,0,2.83-.51,3.6-1.54.77-1.03,1.16-2.86,1.16-5.49s-.39-4.26-1.17-5.07c-.78-.81-1.98-1.21-3.59-1.21"/>
    <path class="cls-10" d="M244.25,155.87c-3.16,0-5.51-1.59-7.06-4.76-1.55-3.17-2.32-7.56-2.32-13.16s.78-10.05,2.35-13.33c1.56-3.29,3.84-4.93,6.81-4.93,2.8,0,5.01,1.51,6.65,4.54,1.64,3.03,2.46,7.51,2.46,13.45s-.81,10.6-2.44,13.64c-1.62,3.04-3.77,4.55-6.45,4.55M244,153.43c.68,0,1.3-.44,1.87-1.31.57-.88.97-3.28,1.21-7.2.24-3.93.36-7.53.36-10.81,0-2.96-.18-5.4-.54-7.31-.36-1.91-.76-3.14-1.18-3.69-.42-.55-.97-.83-1.63-.83-.56,0-1.06.21-1.51.63-.45.42-.79,1.18-1.04,2.28-.25,1.1-.47,3.24-.66,6.42-.19,3.19-.28,6.49-.28,9.92,0,4.27.28,7.33.84,9.15.56,1.83,1.41,2.74,2.56,2.74"/>
    <path class="cls-10" d="M271.75,147.24c0,2.7-.69,4.82-2.06,6.34-1.38,1.53-3.17,2.29-5.4,2.29s-4.04-.76-5.46-2.27c-1.42-1.51-2.13-3.49-2.13-5.94v-23.32c0-.77-.29-1.35-.86-1.74-.39-.27-.59-.58-.59-.93v-1c0-.35.2-.52.59-.52h7.07c.33,0,.5.16.5.48v1.04c0,.35-.2.66-.59.93-.57.39-.86.97-.86,1.74v23.56c0,3.14,1.04,4.71,3.13,4.71,2.28,0,3.42-1.84,3.42-5.53v-22.75c0-.77-.29-1.35-.86-1.74-.39-.27-.59-.58-.59-.93v-1c0-.35.2-.52.59-.52h5.06c.33,0,.5.16.5.48v1.04c0,.35-.2.66-.59.93-.57.39-.86.97-.86,1.74v22.88Z"/>
    <path class="cls-10" d="M281.37,139.21v11.99c0,.79.29,1.38.86,1.77.39.26.59.56.59.91v1.02c0,.35-.2.52-.59.52h-7.07c-.33,0-.5-.16-.5-.48v-1.07c0-.33.2-.63.59-.91.57-.41.86-1,.86-1.77v-26.84c0-.77-.29-1.35-.86-1.75-.39-.26-.59-.57-.59-.93v-1c0-.35.2-.52.59-.52h6.12c3.33,0,5.9.87,7.72,2.6,1.82,1.73,2.73,4.03,2.73,6.9,0,6.36-3.48,9.55-10.45,9.55M281.37,122.86v13.67c1.36,0,2.35-.15,2.98-.46.63-.31,1.13-.93,1.51-1.86.38-.93.57-2.37.57-4.32s-.17-3.38-.52-4.34c-.35-.96-.87-1.64-1.56-2.03-.7-.39-1.69-.61-2.97-.66"/>
    <path class="cls-10" d="M311.54,155.87c-3.16,0-5.51-1.59-7.06-4.76-1.55-3.17-2.32-7.56-2.32-13.16s.78-10.05,2.35-13.33c1.56-3.29,3.84-4.93,6.81-4.93,2.8,0,5.01,1.51,6.65,4.54,1.64,3.03,2.46,7.51,2.46,13.45s-.81,10.6-2.44,13.64c-1.63,3.04-3.78,4.55-6.45,4.55M311.29,153.43c.68,0,1.3-.44,1.87-1.31s.97-3.28,1.21-7.2c.24-3.93.36-7.53.36-10.81,0-2.96-.18-5.4-.54-7.31-.36-1.91-.76-3.14-1.18-3.69-.42-.55-.97-.83-1.63-.83-.56,0-1.06.21-1.51.63-.45.42-.79,1.18-1.04,2.28-.25,1.1-.47,3.24-.66,6.42-.19,3.19-.28,6.49-.28,9.92,0,4.27.28,7.33.84,9.15.56,1.83,1.41,2.74,2.56,2.74"/>
    <path class="cls-10" d="M329.25,122.91v13.31h1.5c.59,0,1-.13,1.24-.4.23-.26.47-.8.71-1.6.18-.59.31-.93.37-1.01.07-.08.25-.12.53-.12h1c.39,0,.59.18.59.54v7.82c0,.38-.16.57-.48.57h-1.11c-.26,0-.43-.05-.51-.15-.08-.1-.19-.37-.33-.81-.29-1.01-.6-1.63-.93-1.85-.33-.22-.7-.33-1.09-.33h-1.5v12.31c0,.79.29,1.38.86,1.77.39.26.59.56.59.91v1.02c0,.35-.2.52-.59.52h-7.07c-.33,0-.5-.16-.5-.48v-1.07c0-.33.2-.63.59-.91.57-.41.86-1,.86-1.77v-26.84c0-.77-.3-1.36-.91-1.77-.41-.26-.61-.56-.61-.91v-1.02c0-.33.17-.5.5-.5h11.74c.35,0,.9-.03,1.66-.09.41-.05.65-.07.73-.07.36,0,.58.05.66.14.08.09.11.29.11.59v6.76c0,.39-.22.59-.66.59h-.88c-.27,0-.45-.06-.53-.17-.08-.11-.18-.49-.28-1.12-.24-1.53-.66-2.55-1.26-3.08-.6-.53-1.47-.79-2.62-.79h-2.38Z"/>
    <path class="cls-10" d="M349.52,155.42h-1.13c-.38,0-.57-.2-.57-.61v-8.55c0-.57.2-.86.61-.86h.98c.26,0,.43.09.51.26.08.17.2.77.35,1.8.62,3.96,2.03,5.94,4.24,5.94,1.15,0,2.05-.5,2.71-1.5.66-1,.99-2.21.99-3.63s-.35-2.83-1.05-4.08c-.7-1.25-2.06-2.95-4.07-5.08-1.56-1.63-2.66-2.9-3.32-3.8-.66-.9-1.19-1.92-1.59-3.05-.4-1.13-.6-2.38-.6-3.74,0-2.51.63-4.57,1.89-6.19,1.26-1.62,2.8-2.43,4.61-2.43.83,0,1.72.24,2.68.71.42.21.71.32.86.32s.32-.06.5-.19c.18-.11.41-.16.68-.16h.84c.44,0,.66.2.66.61v7.5c0,.38-.17.57-.5.57h-1.04c-.27,0-.45-.07-.53-.22-.08-.14-.23-.69-.44-1.64-.71-3.28-1.87-4.92-3.47-4.92-.86,0-1.55.36-2.07,1.09-.52.73-.78,1.56-.78,2.52,0,1.1.31,2.23.92,3.39.61,1.16,1.83,2.67,3.66,4.55,2.34,2.4,3.96,4.52,4.86,6.34.9,1.82,1.35,3.8,1.35,5.93,0,2.87-.75,5.21-2.26,7.01-1.5,1.8-3.29,2.7-5.36,2.7-.92,0-2-.24-3.24-.73-.39-.17-.67-.25-.84-.25-.15,0-.35.08-.59.23-.18.11-.33.16-.43.16"/>
    <path class="cls-10" d="M380.6,146.78c-.15,2.81-.84,5.03-2.07,6.65-1.23,1.63-2.83,2.44-4.8,2.44-2.81,0-5.07-1.53-6.77-4.59-1.7-3.06-2.55-7.53-2.55-13.42s.83-10.3,2.48-13.45c1.66-3.15,3.78-4.72,6.38-4.72,1.07,0,2.26.36,3.56,1.09.18.09.32.14.41.14.11,0,.26-.09.45-.28.11-.15.23-.24.39-.25h1.29c.29,0,.43.22.43.66v7.44c0,.42-.14.63-.43.63h-1c-.32,0-.53-.08-.65-.25-.11-.17-.27-.62-.46-1.36-.92-3.49-2.14-5.24-3.65-5.24-.89,0-1.58.45-2.06,1.36-.48.91-.85,2.62-1.11,5.14-.26,2.52-.39,5.07-.39,7.66,0,5.65.32,9.8.95,12.44.64,2.64,1.75,3.96,3.34,3.96,1.91,0,3.15-2.11,3.74-6.33l2.51.27Z"/>
    <path class="cls-10" d="M399.15,124.36v26.84c0,.79.29,1.38.87,1.77.39.26.58.56.58.91v1.02c0,.35-.2.52-.59.52h-7.05c-.33,0-.5-.16-.5-.48v-1.07c0-.33.19-.63.57-.91.59-.41.88-1,.88-1.77v-12.99h-5.24v12.99c0,.79.29,1.38.86,1.77.39.26.59.56.59.91v1.02c0,.35-.2.52-.59.52h-7.07c-.33,0-.5-.16-.5-.48v-1.07c0-.33.2-.63.59-.91.57-.41.86-1,.86-1.77v-26.84c0-.77-.29-1.35-.86-1.75-.39-.26-.59-.57-.59-.93v-1c0-.35.2-.52.59-.52h7.07c.33,0,.5.16.5.48v1.04c0,.35-.2.66-.59.93-.57.41-.86.99-.86,1.75v10.68h5.24v-10.68c0-.77-.29-1.35-.88-1.75-.39-.26-.59-.57-.59-.93v-1c0-.35.2-.52.59-.52h7.05c.33,0,.5.16.5.48v1.04c0,.35-.19.66-.56.93-.58.41-.87.99-.87,1.75"/>
    <path class="cls-10" d="M412.1,155.87c-3.16,0-5.51-1.59-7.06-4.76-1.55-3.17-2.32-7.56-2.32-13.16s.78-10.05,2.35-13.33c1.56-3.29,3.84-4.93,6.81-4.93,2.8,0,5.01,1.51,6.65,4.54,1.64,3.03,2.46,7.51,2.46,13.45s-.81,10.6-2.44,13.64c-1.63,3.04-3.78,4.55-6.45,4.55M411.85,153.43c.68,0,1.3-.44,1.87-1.31s.97-3.28,1.21-7.2c.24-3.93.36-7.53.36-10.81,0-2.96-.18-5.4-.54-7.31-.36-1.91-.76-3.14-1.18-3.69-.42-.55-.97-.83-1.63-.83-.56,0-1.06.21-1.51.63-.45.42-.79,1.18-1.04,2.28-.25,1.1-.47,3.24-.66,6.42-.19,3.19-.28,6.49-.28,9.92,0,4.27.28,7.33.84,9.15.56,1.83,1.41,2.74,2.56,2.74"/>
    <path class="cls-10" d="M433.11,155.87c-3.16,0-5.51-1.59-7.06-4.76-1.55-3.17-2.32-7.56-2.32-13.16s.78-10.05,2.35-13.33c1.56-3.29,3.84-4.93,6.81-4.93,2.8,0,5.01,1.51,6.65,4.54,1.64,3.03,2.46,7.51,2.46,13.45s-.81,10.6-2.44,13.64c-1.63,3.04-3.78,4.55-6.45,4.55M432.86,153.43c.68,0,1.3-.44,1.87-1.31.57-.88.97-3.28,1.21-7.2.24-3.93.36-7.53.36-10.81,0-2.96-.18-5.4-.54-7.31-.36-1.91-.76-3.14-1.18-3.69-.42-.55-.97-.83-1.63-.83-.56,0-1.06.21-1.51.63-.45.42-.79,1.18-1.04,2.28-.25,1.1-.47,3.24-.66,6.42-.19,3.19-.28,6.49-.28,9.92,0,4.27.28,7.33.84,9.15.56,1.83,1.41,2.74,2.56,2.74"/>
    <path class="cls-10" d="M445.56,151.2v-26.84c0-.77-.29-1.35-.86-1.75-.39-.26-.59-.57-.59-.93v-1c0-.35.2-.52.59-.52h7.07c.33,0,.5.16.5.48v1.04c0,.35-.2.66-.59.93-.58.41-.86.99-.86,1.75v28.36h1.93c1.13,0,2.01-.35,2.64-1.05.63-.7,1.09-1.9,1.39-3.59.12-.65.21-1.02.26-1.12.05-.1.18-.15.4-.15h1.07c.41,0,.61.17.61.5v8.12h-14.44c-.5,0-.75-.23-.75-.68v-.86c0-.35.22-.65.66-.91.65-.39.98-.98.98-1.77"/>
    <path class="cls-10" d="M463.02,155.42h-1.13c-.38,0-.57-.2-.57-.61v-8.55c0-.57.2-.86.61-.86h.98c.26,0,.43.09.51.26.08.17.2.77.35,1.8.62,3.96,2.03,5.94,4.24,5.94,1.15,0,2.05-.5,2.71-1.5.66-1,.99-2.21.99-3.63s-.35-2.83-1.05-4.08c-.7-1.25-2.06-2.95-4.07-5.08-1.56-1.63-2.66-2.9-3.32-3.8-.66-.9-1.19-1.92-1.59-3.05-.4-1.13-.6-2.38-.6-3.74,0-2.51.63-4.57,1.89-6.19,1.26-1.62,2.8-2.43,4.61-2.43.83,0,1.72.24,2.68.71.42.21.71.32.86.32s.32-.06.5-.19c.18-.11.41-.16.68-.16h.84c.44,0,.66.2.66.61v7.5c0,.38-.17.57-.5.57h-1.04c-.27,0-.45-.07-.53-.22-.08-.14-.23-.69-.44-1.64-.71-3.28-1.87-4.92-3.47-4.92-.86,0-1.55.36-2.07,1.09-.52.73-.78,1.56-.78,2.52,0,1.1.31,2.23.92,3.39.61,1.16,1.83,2.67,3.66,4.55,2.34,2.4,3.96,4.52,4.86,6.34.9,1.82,1.35,3.8,1.35,5.93,0,2.87-.75,5.21-2.26,7.01-1.5,1.8-3.29,2.7-5.36,2.7-.92,0-2-.24-3.24-.73-.39-.17-.67-.25-.84-.25-.15,0-.35.08-.59.23-.18.11-.33.16-.43.16"/>
  </g>
</svg>